<svg version="1.1" id="Layer_1" xmlns="http://www.w3.org/2000/svg" xmlns:xlink="http://www.w3.org/1999/xlink" x="0px" y="0px"
	 width="100%" viewBox="0 0 2433 2334" enable-background="new 0 0 2433 2334" xml:space="preserve">
<path fill="#FFFFFF" opacity="1.000000" stroke="none" 
	d="
M2.000000,830.000000 
	C2.000000,553.333313 2.000000,277.666656 2.000000,2.000000 
	C813.333313,2.000000 1624.666626,2.000000 2436.000000,2.000000 
	C2436.000000,780.000000 2436.000000,1558.000000 2436.000000,2336.000000 
	C1624.666626,2336.000000 813.333313,2336.000000 2.000000,2336.000000 
	C2.000000,1834.333374 2.000000,1332.666626 2.000000,830.000000 
M188.545532,1113.820068 
	C188.244751,1157.060547 187.775726,1200.258301 191.416260,1243.465576 
	C194.319351,1277.921143 198.374603,1312.163818 204.257324,1346.195923 
	C212.760101,1395.385132 224.658066,1443.751587 239.894943,1491.312378 
	C272.107269,1591.860840 317.587738,1685.855347 378.146332,1772.446533 
	C425.308533,1839.882446 480.099762,1900.367310 542.477600,1954.094849 
	C610.548767,2012.726196 685.602051,2060.402588 766.969727,2098.157715 
	C832.329468,2128.485352 900.181824,2151.825928 970.394043,2168.159668 
	C1013.456787,2178.177002 1056.923340,2185.668701 1100.911987,2190.526123 
	C1141.253174,2194.980957 1181.678467,2197.005127 1222.201782,2197.625488 
	C1233.472168,2197.798340 1244.759644,2196.412842 1256.041382,2196.374756 
	C1285.326904,2196.276367 1314.391724,2193.495605 1343.478149,2190.422363 
	C1385.175293,2186.016846 1426.372070,2178.768555 1467.109863,2169.089111 
	C1554.985962,2148.209229 1638.652344,2116.345947 1717.708008,2072.416992 
	C1784.390869,2035.362915 1845.325562,1990.465454 1901.473389,1939.009644 
	C1930.206909,1912.677368 1957.091064,1884.495239 1982.542358,1854.945068 
	C2032.260742,1797.219360 2075.384521,1734.910767 2111.729492,1668.003784 
	C2158.345215,1582.188965 2193.390137,1491.843384 2215.761475,1396.699829 
	C2224.815186,1358.195190 2232.358154,1319.390625 2236.266602,1279.991455 
	C2239.083008,1251.604248 2242.417969,1223.193481 2243.396973,1194.720215 
	C2244.390625,1165.824219 2242.757080,1136.838623 2242.309326,1107.891846 
	C2241.856201,1078.612549 2238.277588,1049.627930 2234.342041,1020.663208 
	C2227.477783,970.147034 2216.025879,920.660461 2200.834717,872.045776 
	C2179.416748,803.502991 2150.605957,738.150269 2115.018555,675.790527 
	C2067.046143,591.727905 2007.977783,516.132080 1939.932007,447.485718 
	C1926.362305,433.796295 1911.813354,421.065125 1897.523682,408.104156 
	C1854.781982,369.337250 1808.907104,334.678589 1760.422363,303.399048 
	C1687.904663,256.614746 1610.901978,219.138306 1529.110596,191.624741 
	C1474.814087,173.360107 1419.383057,159.778076 1362.623779,151.504669 
	C1327.416504,146.372757 1292.107300,142.490417 1256.571411,141.852142 
	C1208.679932,140.991989 1160.734375,140.854568 1113.158569,147.755066 
	C1082.284790,152.233063 1051.305542,156.369797 1020.732422,162.460281 
	C937.819031,178.977417 858.356873,206.313354 781.941650,242.311676 
	C722.179260,270.465088 665.356567,303.797302 611.627930,342.304352 
	C569.917908,372.197693 530.367188,404.756989 493.320282,440.239594 
	C463.742432,468.568481 436.058685,498.697113 409.987885,530.352844 
	C354.851044,597.300964 309.127563,670.038513 273.497284,749.118713 
	C246.622147,808.767090 226.459717,870.641357 212.236526,934.458618 
	C202.545334,977.941406 195.852203,1021.911194 192.054535,1066.298462 
	C190.752640,1081.514893 190.070633,1096.784302 188.545532,1113.820068 
z"/>
<path fill="#9EC83D" opacity="1.000000" stroke="none" 
	d="
M188.825470,1112.924805 
	C190.070633,1096.784302 190.752640,1081.514893 192.054535,1066.298462 
	C195.852203,1021.911194 202.545334,977.941406 212.236526,934.458618 
	C226.459717,870.641357 246.622147,808.767090 273.497284,749.118713 
	C309.127563,670.038513 354.851044,597.300964 409.987885,530.352844 
	C436.058685,498.697113 463.742432,468.568481 493.320282,440.239594 
	C530.367188,404.756989 569.917908,372.197693 611.627930,342.304352 
	C665.356567,303.797302 722.179260,270.465088 781.941650,242.311676 
	C858.356873,206.313354 937.819031,178.977417 1020.732422,162.460281 
	C1051.305542,156.369797 1082.284790,152.233063 1113.158569,147.755066 
	C1160.734375,140.854568 1208.679932,140.991989 1256.571411,141.852142 
	C1292.107300,142.490417 1327.416504,146.372757 1362.623779,151.504669 
	C1419.383057,159.778076 1474.814087,173.360107 1529.110596,191.624741 
	C1610.901978,219.138306 1687.904663,256.614746 1760.422363,303.399048 
	C1808.907104,334.678589 1854.781982,369.337250 1897.523682,408.104156 
	C1911.813354,421.065125 1926.362305,433.796295 1939.932007,447.485718 
	C2007.977783,516.132080 2067.046143,591.727905 2115.018555,675.790527 
	C2150.605957,738.150269 2179.416748,803.502991 2200.834717,872.045776 
	C2216.025879,920.660461 2227.477783,970.147034 2234.342041,1020.663208 
	C2238.277588,1049.627930 2241.856201,1078.612549 2242.309326,1107.891846 
	C2242.757080,1136.838623 2244.390625,1165.824219 2243.396973,1194.720215 
	C2242.417969,1223.193481 2239.083008,1251.604248 2236.266602,1279.991455 
	C2232.358154,1319.390625 2224.815186,1358.195190 2215.761475,1396.699829 
	C2193.390137,1491.843384 2158.345215,1582.188965 2111.729492,1668.003784 
	C2075.384521,1734.910767 2032.260742,1797.219360 1982.542358,1854.945068 
	C1957.091064,1884.495239 1930.206909,1912.677368 1901.473389,1939.009644 
	C1845.325562,1990.465454 1784.390869,2035.362915 1717.708008,2072.416992 
	C1638.652344,2116.345947 1554.985962,2148.209229 1467.109863,2169.089111 
	C1426.372070,2178.768555 1385.175293,2186.016846 1343.478149,2190.422363 
	C1314.391724,2193.495605 1285.326904,2196.276367 1256.041382,2196.374756 
	C1244.759644,2196.412842 1233.472168,2197.798340 1222.201782,2197.625488 
	C1181.678467,2197.005127 1141.253174,2194.980957 1100.911987,2190.526123 
	C1056.923340,2185.668701 1013.456787,2178.177002 970.394043,2168.159668 
	C900.181824,2151.825928 832.329468,2128.485352 766.969727,2098.157715 
	C685.602051,2060.402588 610.548767,2012.726196 542.477600,1954.094849 
	C480.099762,1900.367310 425.308533,1839.882446 378.146332,1772.446533 
	C317.587738,1685.855347 272.107269,1591.860840 239.894943,1491.312378 
	C224.658066,1443.751587 212.760101,1395.385132 204.257324,1346.195923 
	C198.374603,1312.163818 194.319351,1277.921143 191.416260,1243.465576 
	C187.775726,1200.258301 188.244751,1157.060547 188.825470,1112.924805 
M1165.709839,1499.000000 
	C1165.645508,1459.341797 1165.536377,1419.683472 1165.574341,1380.025269 
	C1165.579102,1375.170044 1164.939087,1371.134033 1161.071899,1367.486450 
	C1146.285400,1353.539429 1131.478638,1339.587280 1117.269043,1325.060425 
	C1090.942017,1298.145752 1065.062622,1270.793579 1038.913696,1243.703979 
	C1034.210449,1238.831543 1032.542358,1233.370117 1032.607788,1226.574463 
	C1033.088989,1176.592651 1033.411377,1126.608032 1033.481812,1076.623901 
	C1033.606445,988.294434 1033.516724,899.964661 1033.516724,811.635071 
	C1033.516724,808.020630 1033.516846,804.406189 1033.516846,801.276978 
	C1022.387390,794.739197 1011.811890,789.077637 1001.804504,782.545715 
	C970.923950,762.389221 956.462341,724.872742 963.062317,687.218628 
	C970.901306,642.495422 1011.191895,618.513855 1046.366699,616.050354 
	C1079.691895,613.716187 1105.359497,629.219055 1127.629761,651.917725 
	C1135.278076,659.713257 1139.672607,669.621033 1141.603760,680.252747 
	C1147.727295,713.963867 1140.885132,744.532288 1117.830322,770.526184 
	C1109.662231,779.735596 1100.673340,788.233948 1091.815552,796.805176 
	C1088.717529,799.802856 1087.203125,802.854309 1087.189819,807.242310 
	C1087.137451,824.561462 1086.659424,841.878906 1086.505127,859.198425 
	C1086.306030,881.528137 1086.241089,903.859131 1086.166016,926.189697 
	C1086.118408,940.378723 1086.157227,954.567932 1086.157227,970.401489 
	C1089.438843,967.810181 1091.522095,966.384155 1093.353394,964.686340 
	C1125.854858,934.553345 1158.275024,904.332397 1190.870728,874.301819 
	C1194.703491,870.770691 1195.807251,867.009216 1195.794434,862.009216 
	C1195.605835,788.013977 1195.494141,714.018005 1195.667847,640.022949 
	C1195.682861,633.625366 1193.219849,630.447205 1187.877197,627.845520 
	C1178.004272,623.037720 1168.051147,618.249390 1158.724243,612.492432 
	C1125.598633,592.045715 1112.392944,560.879944 1122.165283,523.423645 
	C1131.715942,486.817444 1153.601685,460.514404 1192.106567,453.308716 
	C1231.059937,446.019104 1263.638794,459.191193 1288.618286,490.182312 
	C1295.048706,498.160339 1298.854980,507.635498 1299.352051,517.743042 
	C1300.005493,531.027649 1299.766235,544.397278 1299.137573,557.693848 
	C1298.269653,576.054688 1289.550293,590.734558 1275.791382,602.450684 
	C1266.922363,610.002930 1257.770264,617.242432 1248.474243,624.263611 
	C1244.975220,626.906311 1243.164429,629.540466 1243.171387,634.121887 
	C1243.194214,649.107117 1242.611938,664.092102 1242.513794,679.078857 
	C1242.341187,705.409119 1242.365967,731.740601 1242.287842,758.071472 
	C1242.151489,804.067566 1241.984863,850.063599 1241.876465,896.059814 
	C1241.865479,900.766357 1241.647827,904.787659 1237.500732,908.517578 
	C1188.437134,952.643555 1139.678589,997.108826 1090.549927,1041.161499 
	C1085.262329,1045.902832 1083.187866,1050.548828 1083.416382,1057.432495 
	C1084.388672,1086.733643 1084.994873,1116.047119 1085.664551,1145.357788 
	C1086.143921,1166.343140 1086.620117,1187.329590 1086.862671,1208.318237 
	C1086.933105,1214.408813 1089.264771,1218.792847 1093.607056,1223.059204 
	C1115.718262,1244.783203 1137.522583,1266.819214 1159.456299,1288.723999 
	C1161.782837,1291.047485 1164.252808,1293.227295 1167.113525,1295.901123 
	C1169.751221,1293.059204 1172.096436,1290.735229 1174.214844,1288.220093 
	C1212.427734,1242.848389 1250.562378,1197.410400 1288.878662,1152.126343 
	C1292.991577,1147.265381 1294.917725,1142.387817 1294.857788,1135.915527 
	C1294.564941,1104.252930 1294.651489,1072.585815 1294.739624,1040.920776 
	C1294.959595,961.938660 1295.327881,882.956726 1295.378418,803.974548 
	C1295.382568,797.476807 1297.468628,792.627441 1301.320190,787.682800 
	C1336.541626,742.464844 1371.612915,697.129761 1406.674194,651.787292 
	C1411.345825,645.745789 1418.253906,639.951538 1419.534180,633.175232 
	C1420.888428,626.007080 1416.524658,617.844238 1415.074463,610.038696 
	C1413.317627,600.583069 1410.654907,591.037354 1410.720337,581.546692 
	C1410.997681,541.308655 1441.101074,505.445770 1480.698364,498.054718 
	C1490.730713,496.182159 1501.291138,495.622772 1511.475830,496.342407 
	C1556.632935,499.533142 1590.549438,535.252625 1594.146973,580.647461 
	C1596.164307,606.102600 1586.353149,628.335938 1572.031128,648.630615 
	C1561.648193,663.343140 1547.241455,672.517822 1529.580811,676.524597 
	C1516.027954,679.599426 1502.430298,678.988586 1488.859375,677.095154 
	C1479.680786,675.814453 1470.586060,673.933655 1461.228760,672.281555 
	C1459.603760,674.284729 1458.119141,676.039001 1456.715820,677.856018 
	C1421.476562,723.481567 1386.300171,769.155823 1350.940674,814.687805 
	C1346.837769,819.971008 1345.148560,825.346313 1345.158447,832.051880 
	C1345.322266,942.713623 1345.248047,1053.375732 1345.345947,1164.037598 
	C1345.351562,1170.256226 1344.276367,1175.487915 1340.163452,1180.596924 
	C1302.548096,1227.321167 1265.241333,1274.293701 1227.640747,1321.029907 
	C1223.630859,1326.014038 1221.904663,1330.894775 1221.977539,1337.324097 
	C1222.596680,1391.969849 1222.917969,1446.619019 1223.263062,1501.267700 
	C1223.473511,1534.596069 1223.552124,1567.925293 1223.716797,1601.254028 
	C1224.229248,1704.898071 1224.764893,1808.542114 1225.267090,1912.186157 
	C1225.396240,1938.849854 1225.432129,1965.514038 1225.516724,1992.177979 
	C1225.675659,2042.173218 1225.831299,2092.168457 1226.017822,2142.163574 
	C1226.029663,2145.341553 1226.296021,2148.518555 1226.486572,2152.609131 
	C1248.663940,2151.350586 1269.663940,2150.902344 1290.496460,2148.797119 
	C1319.630493,2145.853271 1348.675537,2141.935303 1377.692871,2137.955566 
	C1412.328735,2133.205322 1446.734253,2127.570312 1479.950195,2115.785400 
	C1525.086060,2099.771484 1571.631104,2087.677002 1613.991333,2064.248535 
	C1643.103638,2048.146973 1674.599487,2036.681763 1702.799683,2018.625000 
	C1732.789185,1999.422363 1764.710327,1983.271851 1792.225708,1960.186157 
	C1812.642456,1943.056152 1833.855469,1926.878418 1854.548096,1910.072388 
	C1865.387695,1901.268799 1876.620972,1892.762207 1886.362427,1882.832520 
	C1908.284058,1860.486938 1929.647339,1837.576050 1950.747925,1814.447998 
	C1971.608887,1791.582764 1992.483521,1768.669189 2009.258179,1742.452881 
	C2011.052612,1739.648560 2013.053345,1736.975708 2014.967773,1734.248413 
	C2041.984253,1695.759155 2066.451172,1655.724731 2087.453857,1613.635254 
	C2097.403320,1593.696655 2107.073486,1573.608276 2116.364990,1553.356079 
	C2121.207764,1542.800659 2125.035400,1531.773193 2129.170166,1520.901489 
	C2132.125732,1513.131226 2134.358398,1505.055664 2137.729980,1497.479492 
	C2150.382324,1469.046875 2156.838623,1438.654785 2166.097900,1409.153198 
	C2167.089111,1405.995361 2167.523926,1402.657349 2168.139160,1399.388306 
	C2172.139648,1378.141602 2175.211182,1356.668335 2180.350830,1335.701660 
	C2185.853027,1313.253540 2188.970459,1290.667847 2190.337158,1267.668335 
	C2191.541260,1247.399536 2193.773193,1227.194092 2195.296387,1206.941406 
	C2196.944824,1185.023560 2198.770020,1163.054077 2195.313232,1141.159180 
	C2190.944580,1113.488281 2188.268311,1085.732544 2187.568848,1057.682739 
	C2187.164307,1041.454224 2184.881104,1025.166382 2182.128906,1009.130798 
	C2179.093262,991.442139 2174.386230,974.046509 2170.724609,956.457214 
	C2168.083008,943.769958 2167.472168,930.445984 2163.243652,918.354553 
	C2157.290283,901.331482 2153.450439,883.816101 2148.198730,866.704407 
	C2141.189453,843.864929 2132.282959,821.499268 2122.686523,799.589111 
	C2110.270508,771.241638 2096.054443,743.688232 2083.217285,715.517883 
	C2074.309570,695.970276 2062.713379,678.204651 2050.263916,660.848022 
	C2042.518066,650.049194 2034.358521,639.425476 2030.777222,626.212646 
	C2030.190308,624.047119 2028.881958,621.804321 2027.282959,620.232117 
	C2019.529419,612.609192 2014.603271,603.234192 2009.669312,593.730286 
	C2006.932739,588.459106 2003.641357,583.107788 1999.395630,579.054260 
	C1983.970947,564.328491 1973.738159,544.946106 1956.620239,531.786865 
	C1955.067505,530.593201 1953.727417,528.954346 1952.701416,527.270630 
	C1944.277710,513.445557 1933.130371,502.071899 1921.063843,491.459869 
	C1918.083618,488.838898 1915.643311,485.600098 1912.983154,482.620056 
	C1906.109741,474.920197 1899.931763,466.438751 1892.258423,459.644623 
	C1870.812012,440.655579 1848.960205,422.107422 1826.887573,403.845734 
	C1776.640503,362.274048 1722.883667,325.904602 1664.129517,297.408630 
	C1636.278687,283.900818 1607.508545,272.299133 1579.484009,259.133514 
	C1565.755737,252.684067 1551.732910,248.002274 1536.763916,245.928711 
	C1531.062866,245.138977 1525.615112,243.546814 1521.681519,238.966599 
	C1515.331299,231.572830 1506.684814,228.897141 1497.614502,228.419266 
	C1484.357544,227.720795 1472.265869,223.552841 1460.105225,218.779541 
	C1451.164673,215.270187 1441.890991,212.120834 1432.475098,210.414062 
	C1413.510132,206.976349 1394.352905,204.589722 1375.263794,201.847763 
	C1355.837769,199.057434 1336.393555,196.393021 1316.966431,193.609604 
	C1308.083618,192.336929 1299.244141,189.915054 1290.348511,189.724869 
	C1249.049194,188.841873 1207.714478,187.539154 1166.437866,188.447739 
	C1142.244995,188.980255 1118.081421,192.957001 1094.006104,196.149155 
	C1067.290405,199.691406 1040.517090,203.222397 1014.092529,208.408249 
	C991.596558,212.823120 969.589355,219.696381 947.313904,225.274353 
	C912.067993,234.100235 876.939514,243.199203 845.025269,261.443146 
	C843.016296,262.591614 840.794067,263.413727 838.599731,264.184479 
	C805.123352,275.942810 774.333923,293.349579 743.226257,309.992065 
	C707.912781,328.884705 675.538513,352.473358 642.092529,374.373413 
	C608.137451,396.606812 580.496582,426.255920 548.565430,450.782562 
	C548.041077,451.185303 547.600586,451.701935 547.142761,452.186066 
	C516.011475,485.107147 483.554474,516.747253 453.989197,551.189270 
	C437.037567,570.937012 419.632599,590.132629 406.714813,612.941284 
	C399.987244,624.819885 392.571838,636.313477 385.334167,647.897888 
	C357.235291,692.872070 331.279877,738.809448 311.965759,788.531311 
	C302.952850,811.733887 291.730469,834.000183 285.345245,858.308167 
	C280.958618,875.007690 274.248993,891.083008 269.356995,907.667236 
	C262.110535,932.233215 255.024994,956.832458 252.058411,982.465454 
	C249.496750,1004.599609 245.992462,1026.633911 242.504761,1048.649048 
	C238.905853,1071.366089 235.735947,1094.081055 235.819687,1117.161011 
	C235.953918,1154.155151 235.658081,1191.152100 235.987534,1228.143921 
	C236.108948,1241.776245 236.370682,1255.573853 238.492874,1268.991699 
	C246.135040,1317.310547 254.186661,1365.589233 266.089600,1413.091797 
	C284.374451,1486.063232 310.153473,1556.270386 347.003021,1621.959106 
	C361.481781,1647.769287 373.375702,1675.114258 391.103943,1699.082886 
	C392.479279,1700.942383 393.448547,1703.111450 394.534210,1705.174683 
	C401.700745,1718.793091 410.489136,1731.206787 420.407104,1743.032104 
	C433.237793,1758.330566 444.705658,1774.766602 457.403107,1790.183472 
	C475.783478,1812.500488 494.719025,1834.360962 513.481689,1856.361572 
	C515.416138,1858.629639 517.729797,1860.589600 519.964600,1862.583496 
	C529.153198,1870.782715 538.341858,1878.982666 547.600342,1887.102661 
	C562.126221,1899.842651 576.581360,1912.667847 591.291626,1925.192505 
	C630.716736,1958.760132 675.845825,1984.399292 717.098206,2015.435181 
	C717.891602,2016.032104 718.789246,2016.506592 719.679749,2016.956177 
	C748.210693,2031.365112 776.289307,2046.781982 805.412292,2059.875244 
	C833.922974,2072.693115 863.481873,2083.185059 892.619568,2094.598633 
	C899.119263,2097.144531 905.645203,2099.816162 912.389771,2101.513184 
	C957.565613,2112.880371 1002.786438,2124.070557 1048.027588,2135.176025 
	C1083.063843,2143.776367 1118.679565,2148.330566 1154.699463,2149.841309 
	C1158.230225,2149.989502 1161.772583,2149.861084 1165.709473,2149.861084 
	C1165.709473,1932.841553 1165.709473,1716.920776 1165.709839,1499.000000 
M1070.910522,671.729492 
	C1061.765747,666.852722 1052.259888,665.338318 1042.020752,667.804199 
	C1023.965881,672.152283 1011.096252,687.802917 1010.492065,706.646057 
	C1009.939514,723.878662 1021.874023,740.456482 1038.801514,745.969421 
	C1056.185425,751.630920 1075.309937,745.072144 1085.196289,729.822083 
	C1098.518677,709.271851 1091.497437,684.128479 1070.910522,671.729492 
M1237.437866,568.656982 
	C1250.449585,557.610168 1255.923462,543.854248 1252.118652,526.945740 
	C1248.481934,510.783966 1234.047363,497.764313 1218.179932,496.054169 
	C1200.100342,494.105621 1183.859985,502.729767 1176.132568,518.382812 
	C1168.744995,533.346863 1171.537354,551.532593 1182.728394,563.850098 
	C1195.186890,577.562561 1218.125244,582.117676 1237.437866,568.656982 
M1525.251465,618.467834 
	C1539.096069,607.016479 1544.495972,592.617615 1539.911743,575.042664 
	C1534.414795,553.968872 1512.308594,541.247925 1490.887817,546.566895 
	C1469.569214,551.860657 1456.420898,573.531006 1461.197388,594.789978 
	C1468.041870,625.253784 1502.894775,634.622498 1525.251465,618.467834 
z"/>
<path fill="#FEFEFE" opacity="1.000000" stroke="none" 
	d="
M1165.709717,1500.000000 
	C1165.709473,1716.920776 1165.709473,1932.841553 1165.709473,2149.861084 
	C1161.772583,2149.861084 1158.230225,2149.989502 1154.699463,2149.841309 
	C1118.679565,2148.330566 1083.063843,2143.776367 1048.027588,2135.176025 
	C1002.786438,2124.070557 957.565613,2112.880371 912.389771,2101.513184 
	C905.645203,2099.816162 899.119263,2097.144531 892.619568,2094.598633 
	C863.481873,2083.185059 833.922974,2072.693115 805.412292,2059.875244 
	C776.289307,2046.781982 748.210693,2031.365112 719.679749,2016.956177 
	C718.789246,2016.506592 717.891602,2016.032104 717.098206,2015.435181 
	C675.845825,1984.399292 630.716736,1958.760132 591.291626,1925.192505 
	C576.581360,1912.667847 562.126221,1899.842651 547.600342,1887.102661 
	C538.341858,1878.982666 529.153198,1870.782715 519.964600,1862.583496 
	C517.729797,1860.589600 515.416138,1858.629639 513.481689,1856.361572 
	C494.719025,1834.360962 475.783478,1812.500488 457.403107,1790.183472 
	C444.705658,1774.766602 433.237793,1758.330566 420.407104,1743.032104 
	C410.489136,1731.206787 401.700745,1718.793091 394.534210,1705.174683 
	C393.448547,1703.111450 392.479279,1700.942383 391.103943,1699.082886 
	C373.375702,1675.114258 361.481781,1647.769287 347.003021,1621.959106 
	C310.153473,1556.270386 284.374451,1486.063232 266.089600,1413.091797 
	C254.186661,1365.589233 246.135040,1317.310547 238.492874,1268.991699 
	C236.370682,1255.573853 236.108948,1241.776245 235.987534,1228.143921 
	C235.658081,1191.152100 235.953918,1154.155151 235.819687,1117.161011 
	C235.735947,1094.081055 238.905853,1071.366089 242.504761,1048.649048 
	C245.992462,1026.633911 249.496750,1004.599609 252.058411,982.465454 
	C255.024994,956.832458 262.110535,932.233215 269.356995,907.667236 
	C274.248993,891.083008 280.958618,875.007690 285.345245,858.308167 
	C291.730469,834.000183 302.952850,811.733887 311.965759,788.531311 
	C331.279877,738.809448 357.235291,692.872070 385.334167,647.897888 
	C392.571838,636.313477 399.987244,624.819885 406.714813,612.941284 
	C419.632599,590.132629 437.037567,570.937012 453.989197,551.189270 
	C483.554474,516.747253 516.011475,485.107147 547.142761,452.186066 
	C547.600586,451.701935 548.041077,451.185303 548.565430,450.782562 
	C580.496582,426.255920 608.137451,396.606812 642.092529,374.373413 
	C675.538513,352.473358 707.912781,328.884705 743.226257,309.992065 
	C774.333923,293.349579 805.123352,275.942810 838.599731,264.184479 
	C840.794067,263.413727 843.016296,262.591614 845.025269,261.443146 
	C876.939514,243.199203 912.067993,234.100235 947.313904,225.274353 
	C969.589355,219.696381 991.596558,212.823120 1014.092529,208.408249 
	C1040.517090,203.222397 1067.290405,199.691406 1094.006104,196.149155 
	C1118.081421,192.957001 1142.244995,188.980255 1166.437866,188.447739 
	C1207.714478,187.539154 1249.049194,188.841873 1290.348511,189.724869 
	C1299.244141,189.915054 1308.083618,192.336929 1316.966431,193.609604 
	C1336.393555,196.393021 1355.837769,199.057434 1375.263794,201.847763 
	C1394.352905,204.589722 1413.510132,206.976349 1432.475098,210.414062 
	C1441.890991,212.120834 1451.164673,215.270187 1460.105225,218.779541 
	C1472.265869,223.552841 1484.357544,227.720795 1497.614502,228.419266 
	C1506.684814,228.897141 1515.331299,231.572830 1521.681519,238.966599 
	C1525.615112,243.546814 1531.062866,245.138977 1536.763916,245.928711 
	C1551.732910,248.002274 1565.755737,252.684067 1579.484009,259.133514 
	C1607.508545,272.299133 1636.278687,283.900818 1664.129517,297.408630 
	C1722.883667,325.904602 1776.640503,362.274048 1826.887573,403.845734 
	C1848.960205,422.107422 1870.812012,440.655579 1892.258423,459.644623 
	C1899.931763,466.438751 1906.109741,474.920197 1912.983154,482.620056 
	C1915.643311,485.600098 1918.083618,488.838898 1921.063843,491.459869 
	C1933.130371,502.071899 1944.277710,513.445557 1952.701416,527.270630 
	C1953.727417,528.954346 1955.067505,530.593201 1956.620239,531.786865 
	C1973.738159,544.946106 1983.970947,564.328491 1999.395630,579.054260 
	C2003.641357,583.107788 2006.932739,588.459106 2009.669312,593.730286 
	C2014.603271,603.234192 2019.529419,612.609192 2027.282959,620.232117 
	C2028.881958,621.804321 2030.190308,624.047119 2030.777222,626.212646 
	C2034.358521,639.425476 2042.518066,650.049194 2050.263916,660.848022 
	C2062.713379,678.204651 2074.309570,695.970276 2083.217285,715.517883 
	C2096.054443,743.688232 2110.270508,771.241638 2122.686523,799.589111 
	C2132.282959,821.499268 2141.189453,843.864929 2148.198730,866.704407 
	C2153.450439,883.816101 2157.290283,901.331482 2163.243652,918.354553 
	C2167.472168,930.445984 2168.083008,943.769958 2170.724609,956.457214 
	C2174.386230,974.046509 2179.093262,991.442139 2182.128906,1009.130798 
	C2184.881104,1025.166382 2187.164307,1041.454224 2187.568848,1057.682739 
	C2188.268311,1085.732544 2190.944580,1113.488281 2195.313232,1141.159180 
	C2198.770020,1163.054077 2196.944824,1185.023560 2195.296387,1206.941406 
	C2193.773193,1227.194092 2191.541260,1247.399536 2190.337158,1267.668335 
	C2188.970459,1290.667847 2185.853027,1313.253540 2180.350830,1335.701660 
	C2175.211182,1356.668335 2172.139648,1378.141602 2168.139160,1399.388306 
	C2167.523926,1402.657349 2167.089111,1405.995361 2166.097900,1409.153198 
	C2156.838623,1438.654785 2150.382324,1469.046875 2137.729980,1497.479492 
	C2134.358398,1505.055664 2132.125732,1513.131226 2129.170166,1520.901489 
	C2125.035400,1531.773193 2121.207764,1542.800659 2116.364990,1553.356079 
	C2107.073486,1573.608276 2097.403320,1593.696655 2087.453857,1613.635254 
	C2066.451172,1655.724731 2041.984253,1695.759155 2014.967773,1734.248413 
	C2013.053345,1736.975708 2011.052612,1739.648560 2009.258179,1742.452881 
	C1992.483521,1768.669189 1971.608887,1791.582764 1950.747925,1814.447998 
	C1929.647339,1837.576050 1908.284058,1860.486938 1886.362427,1882.832520 
	C1876.620972,1892.762207 1865.387695,1901.268799 1854.548096,1910.072388 
	C1833.855469,1926.878418 1812.642456,1943.056152 1792.225708,1960.186157 
	C1764.710327,1983.271851 1732.789185,1999.422363 1702.799683,2018.625000 
	C1674.599487,2036.681763 1643.103638,2048.146973 1613.991333,2064.248535 
	C1571.631104,2087.677002 1525.086060,2099.771484 1479.950195,2115.785400 
	C1446.734253,2127.570312 1412.328735,2133.205322 1377.692871,2137.955566 
	C1348.675537,2141.935303 1319.630493,2145.853271 1290.496460,2148.797119 
	C1269.663940,2150.902344 1248.663940,2151.350586 1226.486572,2152.609131 
	C1226.296021,2148.518555 1226.029663,2145.341553 1226.017822,2142.163574 
	C1225.831299,2092.168457 1225.675659,2042.173218 1225.516724,1992.177979 
	C1225.432129,1965.514038 1225.396240,1938.849854 1225.267090,1912.186157 
	C1224.764893,1808.542114 1224.229248,1704.898071 1223.716797,1601.254028 
	C1223.552124,1567.925293 1223.473511,1534.596069 1223.263062,1501.267700 
	C1222.917969,1446.619019 1222.596680,1391.969849 1221.977539,1337.324097 
	C1221.904663,1330.894775 1223.630859,1326.014038 1227.640747,1321.029907 
	C1265.241333,1274.293701 1302.548096,1227.321167 1340.163452,1180.596924 
	C1344.276367,1175.487915 1345.351562,1170.256226 1345.345947,1164.037598 
	C1345.248047,1053.375732 1345.322266,942.713623 1345.158447,832.051880 
	C1345.148560,825.346313 1346.837769,819.971008 1350.940674,814.687805 
	C1386.300171,769.155823 1421.476562,723.481567 1456.715820,677.856018 
	C1458.119141,676.039001 1459.603760,674.284729 1461.228760,672.281555 
	C1470.586060,673.933655 1479.680786,675.814453 1488.859375,677.095154 
	C1502.430298,678.988586 1516.027954,679.599426 1529.580811,676.524597 
	C1547.241455,672.517822 1561.648193,663.343140 1572.031128,648.630615 
	C1586.353149,628.335938 1596.164307,606.102600 1594.146973,580.647461 
	C1590.549438,535.252625 1556.632935,499.533142 1511.475830,496.342407 
	C1501.291138,495.622772 1490.730713,496.182159 1480.698364,498.054718 
	C1441.101074,505.445770 1410.997681,541.308655 1410.720337,581.546692 
	C1410.654907,591.037354 1413.317627,600.583069 1415.074463,610.038696 
	C1416.524658,617.844238 1420.888428,626.007080 1419.534180,633.175232 
	C1418.253906,639.951538 1411.345825,645.745789 1406.674194,651.787292 
	C1371.612915,697.129761 1336.541626,742.464844 1301.320190,787.682800 
	C1297.468628,792.627441 1295.382568,797.476807 1295.378418,803.974548 
	C1295.327881,882.956726 1294.959595,961.938660 1294.739624,1040.920776 
	C1294.651489,1072.585815 1294.564941,1104.252930 1294.857788,1135.915527 
	C1294.917725,1142.387817 1292.991577,1147.265381 1288.878662,1152.126343 
	C1250.562378,1197.410400 1212.427734,1242.848389 1174.214844,1288.220093 
	C1172.096436,1290.735229 1169.751221,1293.059204 1167.113525,1295.901123 
	C1164.252808,1293.227295 1161.782837,1291.047485 1159.456299,1288.723999 
	C1137.522583,1266.819214 1115.718262,1244.783203 1093.607056,1223.059204 
	C1089.264771,1218.792847 1086.933105,1214.408813 1086.862671,1208.318237 
	C1086.620117,1187.329590 1086.143921,1166.343140 1085.664551,1145.357788 
	C1084.994873,1116.047119 1084.388672,1086.733643 1083.416382,1057.432495 
	C1083.187866,1050.548828 1085.262329,1045.902832 1090.549927,1041.161499 
	C1139.678589,997.108826 1188.437134,952.643555 1237.500732,908.517578 
	C1241.647827,904.787659 1241.865479,900.766357 1241.876465,896.059814 
	C1241.984863,850.063599 1242.151489,804.067566 1242.287842,758.071472 
	C1242.365967,731.740601 1242.341187,705.409119 1242.513794,679.078857 
	C1242.611938,664.092102 1243.194214,649.107117 1243.171387,634.121887 
	C1243.164429,629.540466 1244.975220,626.906311 1248.474243,624.263611 
	C1257.770264,617.242432 1266.922363,610.002930 1275.791382,602.450684 
	C1289.550293,590.734558 1298.269653,576.054688 1299.137573,557.693848 
	C1299.766235,544.397278 1300.005493,531.027649 1299.352051,517.743042 
	C1298.854980,507.635498 1295.048706,498.160339 1288.618286,490.182312 
	C1263.638794,459.191193 1231.059937,446.019104 1192.106567,453.308716 
	C1153.601685,460.514404 1131.715942,486.817444 1122.165283,523.423645 
	C1112.392944,560.879944 1125.598633,592.045715 1158.724243,612.492432 
	C1168.051147,618.249390 1178.004272,623.037720 1187.877197,627.845520 
	C1193.219849,630.447205 1195.682861,633.625366 1195.667847,640.022949 
	C1195.494141,714.018005 1195.605835,788.013977 1195.794434,862.009216 
	C1195.807251,867.009216 1194.703491,870.770691 1190.870728,874.301819 
	C1158.275024,904.332397 1125.854858,934.553345 1093.353394,964.686340 
	C1091.522095,966.384155 1089.438843,967.810181 1086.157227,970.401489 
	C1086.157227,954.567932 1086.118408,940.378723 1086.166016,926.189697 
	C1086.241089,903.859131 1086.306030,881.528137 1086.505127,859.198425 
	C1086.659424,841.878906 1087.137451,824.561462 1087.189819,807.242310 
	C1087.203125,802.854309 1088.717529,799.802856 1091.815552,796.805176 
	C1100.673340,788.233948 1109.662231,779.735596 1117.830322,770.526184 
	C1140.885132,744.532288 1147.727295,713.963867 1141.603760,680.252747 
	C1139.672607,669.621033 1135.278076,659.713257 1127.629761,651.917725 
	C1105.359497,629.219055 1079.691895,613.716187 1046.366699,616.050354 
	C1011.191895,618.513855 970.901306,642.495422 963.062317,687.218628 
	C956.462341,724.872742 970.923950,762.389221 1001.804504,782.545715 
	C1011.811890,789.077637 1022.387390,794.739197 1033.516846,801.276978 
	C1033.516846,804.406189 1033.516724,808.020630 1033.516724,811.635071 
	C1033.516724,899.964661 1033.606445,988.294434 1033.481812,1076.623901 
	C1033.411377,1126.608032 1033.088989,1176.592651 1032.607788,1226.574463 
	C1032.542358,1233.370117 1034.210449,1238.831543 1038.913696,1243.703979 
	C1065.062622,1270.793579 1090.942017,1298.145752 1117.269043,1325.060425 
	C1131.478638,1339.587280 1146.285400,1353.539429 1161.071899,1367.486450 
	C1164.939087,1371.134033 1165.579102,1375.170044 1165.574341,1380.025269 
	C1165.536377,1419.683472 1165.645508,1459.341797 1165.709717,1500.000000 
M748.450073,652.125122 
	C726.353516,650.817322 705.850464,655.946228 688.024048,669.082275 
	C656.941345,691.986633 644.293152,723.415161 647.600525,761.482788 
	C649.795105,786.741516 661.934631,806.092163 683.371582,819.639404 
	C690.976685,824.445618 698.342285,829.657654 706.134094,834.132690 
	C711.904907,837.446899 714.251831,841.408508 714.184692,848.411865 
	C713.731140,895.740295 713.818481,943.073730 713.707764,990.405579 
	C713.664124,1009.070923 714.232239,1027.774048 713.181091,1046.384155 
	C712.707642,1054.766479 714.826904,1060.851196 719.770386,1067.269043 
	C758.814087,1117.957153 797.513550,1168.910645 836.540283,1219.612061 
	C841.077026,1225.505981 843.074097,1231.419678 842.835327,1238.819824 
	C842.276855,1256.137085 842.293823,1273.474609 842.200073,1290.804565 
	C842.158691,1298.446777 840.099731,1307.252686 843.188293,1313.406128 
	C846.263123,1319.532227 854.614197,1323.032471 860.705383,1327.612549 
	C863.634094,1329.814697 866.735229,1331.787109 869.667053,1333.985352 
	C871.928162,1335.680420 874.046936,1337.565186 877.542603,1340.449585 
	C873.911560,1341.077759 872.083984,1341.598633 870.236389,1341.682983 
	C840.287231,1343.049805 810.310974,1343.976685 780.397461,1345.888306 
	C769.566650,1346.580444 760.969055,1344.316284 754.158936,1335.713135 
	C752.323608,1333.394653 749.742065,1331.673950 747.545837,1329.632935 
	C713.370544,1297.870117 679.265381,1266.031494 644.950806,1234.420044 
	C640.776245,1230.574219 639.351807,1226.692993 640.264465,1221.268555 
	C641.975891,1211.096558 643.189148,1200.841431 644.860474,1190.662109 
	C651.497559,1150.238281 637.925598,1117.714722 605.593323,1093.343018 
	C569.334106,1066.011108 516.372498,1068.794312 485.621338,1105.399902 
	C466.074219,1128.668457 459.895386,1155.724731 462.716278,1185.683838 
	C465.294952,1213.070190 479.084991,1232.173950 502.719299,1245.022461 
	C508.865906,1248.363770 514.962463,1251.800415 521.026794,1255.289062 
	C529.014832,1259.884277 537.629150,1262.398315 546.790405,1262.091064 
	C561.083374,1261.611816 575.421936,1261.198364 589.615906,1259.625854 
	C596.389038,1258.875610 600.953552,1260.741821 605.651367,1265.082153 
	C647.997437,1304.206421 690.716553,1342.932007 732.695923,1382.444214 
	C742.267456,1391.453247 751.044922,1395.901733 764.916992,1394.741333 
	C800.081543,1391.799927 835.436340,1391.153076 870.710449,1389.491089 
	C886.347473,1388.754395 902.006775,1388.154419 917.589294,1386.751465 
	C924.356628,1386.142090 929.575684,1387.361206 935.042786,1391.605591 
	C977.947876,1424.915771 1020.982239,1458.062622 1064.260132,1490.886108 
	C1070.497192,1495.616455 1072.905762,1500.444336 1072.886597,1508.266235 
	C1072.631592,1612.264771 1072.716431,1716.264160 1072.716553,1820.263306 
	C1072.716553,1890.262695 1072.721924,1960.262207 1072.702026,2030.261597 
	C1072.700928,2034.109985 1072.491333,2037.958374 1072.376831,2041.874023 
	C1069.729492,2041.874023 1068.356201,2042.106079 1067.087646,2041.839722 
	C1043.972534,2036.988403 1020.396423,2033.651367 997.857056,2026.871582 
	C939.429138,2009.296631 882.607910,1987.168091 827.702942,1960.500000 
	C746.996887,1921.300293 675.434021,1868.644531 609.692139,1808.123779 
	C542.704773,1746.456421 488.390350,1674.580566 443.826721,1595.282715 
	C403.589661,1523.683838 372.927063,1448.394287 357.097717,1367.524780 
	C351.538086,1339.121582 347.310181,1310.455933 341.631805,1282.078613 
	C336.443573,1256.150757 333.697174,1230.129395 334.242859,1203.695068 
	C335.068024,1163.719727 335.417206,1123.733887 336.388824,1083.762695 
	C336.736877,1069.444702 339.475098,1055.408081 343.014679,1041.443115 
	C347.995453,1021.791870 351.853485,1001.856262 356.198669,982.043823 
	C361.256256,958.982849 364.873047,935.488342 371.649109,912.943542 
	C393.851532,839.073486 428.331879,770.790466 469.107208,705.559143 
	C500.085938,656.000183 533.944824,608.586243 574.592529,566.380371 
	C634.387085,504.293640 701.816956,451.944855 776.322876,408.596832 
	C829.429565,377.698975 883.966492,350.049255 942.714355,331.270477 
	C990.095398,316.125092 1038.502075,305.638794 1087.618286,298.279236 
	C1122.543457,293.046082 1157.654663,289.272705 1192.974487,288.368469 
	C1245.054810,287.035156 1296.767944,291.084167 1348.190308,299.579224 
	C1430.847656,313.234253 1510.113647,337.815033 1585.927612,373.286407 
	C1701.336426,427.283356 1801.207031,501.994934 1884.240723,598.888123 
	C1942.353638,666.700745 1989.050659,741.604065 2024.255493,823.699585 
	C2070.591553,931.752502 2090.957275,1045.136963 2093.573730,1162.092285 
	C2094.094971,1185.381592 2093.709961,1208.775757 2092.092529,1232.006592 
	C2090.152100,1259.868896 2088.230225,1287.937866 2083.174316,1315.340576 
	C2066.037842,1408.223633 2037.106445,1497.218750 1991.972412,1580.617554 
	C1943.018921,1671.073975 1881.943726,1752.045166 1805.973511,1821.653931 
	C1711.886230,1907.862671 1603.808838,1970.251709 1482.741943,2009.617554 
	C1438.506836,2024.000854 1392.868286,2034.074951 1347.848022,2046.031494 
	C1337.671753,2048.734131 1327.403076,2051.089600 1315.991211,2053.896729 
	C1316.634644,2036.155396 1317.232422,2019.675171 1317.832275,2003.134399 
	C1327.225830,2000.513672 1335.464966,1997.867554 1343.867310,1995.927979 
	C1392.546875,1984.691284 1440.841675,1972.112427 1488.126343,1955.849487 
	C1554.861816,1932.896729 1618.689453,1903.827759 1677.903442,1865.201904 
	C1763.195923,1809.564697 1835.193359,1739.945068 1894.113525,1656.988159 
	C1995.206787,1514.653076 2047.089111,1355.875000 2051.194824,1181.469727 
	C2051.994873,1147.486450 2049.904297,1113.577148 2046.357910,1079.742065 
	C2042.149902,1039.590820 2034.840942,1000.054260 2024.454712,961.064575 
	C2007.304321,896.681763 1981.014648,835.985962 1950.598999,776.902222 
	C1921.636475,720.641174 1887.456787,667.991211 1844.881958,620.980652 
	C1816.628540,589.783508 1785.698120,561.419983 1753.432251,534.490662 
	C1685.978394,478.193329 1612.421143,431.780975 1531.262939,397.695953 
	C1439.592651,359.196106 1344.161377,338.519867 1244.667603,338.019318 
	C1203.361450,337.811493 1162.025879,338.741150 1120.745361,340.273712 
	C1101.855591,340.975037 1082.811890,343.101105 1064.273682,346.777588 
	C956.253723,368.199921 855.656738,408.365509 763.230469,468.441620 
	C678.546143,523.485535 605.957947,591.611755 545.449768,672.427368 
	C485.199036,752.899048 439.220978,840.730957 411.417633,937.642273 
	C391.367340,1007.529602 382.946320,1079.174927 380.369141,1151.584717 
	C378.492310,1204.317017 381.699829,1256.836426 390.541077,1308.878784 
	C403.671783,1386.170288 427.414093,1460.127563 461.569824,1530.733398 
	C495.746338,1601.382324 539.185242,1665.821045 590.942505,1724.748779 
	C646.535645,1788.043701 709.654419,1842.357910 781.735046,1886.207764 
	C827.495667,1914.046021 876.547180,1934.726807 926.196411,1954.217041 
	C951.620667,1964.197388 977.057861,1974.152466 1004.109375,1979.001953 
	C1007.850647,1979.672607 1011.662476,1979.950073 1016.283936,1980.512085 
	C1017.010010,1961.022949 1017.687988,1942.822876 1018.374451,1924.395752 
	C1014.072021,1922.828247 1010.682739,1921.514038 1007.241699,1920.353149 
	C990.834656,1914.818115 974.254089,1909.753784 958.031982,1903.723755 
	C927.773438,1892.476074 896.721375,1882.738525 867.768250,1868.719849 
	C779.433044,1825.949219 703.363159,1766.519409 637.883057,1693.454468 
	C570.601440,1618.379028 519.567017,1533.457153 484.254517,1439.137573 
	C463.525726,1383.770996 449.204132,1326.757202 441.429260,1268.043213 
	C437.045471,1234.937866 434.781036,1201.700195 434.830292,1168.441772 
	C434.872162,1140.196655 437.258057,1111.896484 439.786530,1083.726440 
	C444.296051,1033.485474 455.092072,984.421509 470.147736,936.322449 
	C506.399445,820.507263 566.057922,718.364929 650.319946,630.942932 
	C733.275574,544.876404 831.236572,481.329254 942.817993,438.725769 
	C1010.721802,412.799042 1080.992798,396.762817 1153.362427,390.433258 
	C1191.225586,387.121674 1229.182373,386.827087 1267.189209,389.473053 
	C1299.810669,391.744110 1332.180542,395.687256 1364.101685,402.513763 
	C1529.302612,437.842865 1669.945801,517.031982 1785.682373,640.111328 
	C1863.536133,722.904419 1920.231201,818.496948 1957.007935,925.977600 
	C1975.198242,979.139038 1987.967896,1033.512085 1991.353760,1089.680786 
	C1993.357544,1122.919067 1993.698364,1156.273315 1994.164551,1189.584106 
	C1994.692261,1227.293579 1992.206665,1264.903809 1985.410889,1301.997437 
	C1965.594849,1410.159912 1925.742920,1510.410767 1864.951782,1602.180298 
	C1822.854980,1665.729126 1771.723633,1721.141602 1713.251709,1769.878784 
	C1645.862549,1826.048462 1571.228027,1869.899414 1489.322876,1901.384155 
	C1446.322388,1917.913818 1401.701782,1928.897217 1357.156738,1940.110596 
	C1344.678711,1943.251587 1331.937866,1945.348022 1318.145386,1948.162964 
	C1318.145386,1943.326782 1318.150146,1939.719238 1318.144653,1936.111694 
	C1318.002808,1842.780762 1317.862915,1749.449829 1317.715332,1656.118896 
	C1317.661011,1621.786987 1317.689697,1587.454346 1317.420654,1553.124146 
	C1317.377197,1547.567505 1318.845825,1544.018677 1323.807251,1540.923706 
	C1338.220459,1531.932495 1352.346924,1522.466064 1366.358887,1512.855103 
	C1371.295044,1509.469360 1375.583862,1509.184082 1381.165405,1511.446655 
	C1404.618774,1520.954346 1428.350098,1529.777710 1451.783203,1539.333130 
	C1457.604126,1541.706787 1462.030640,1541.389648 1467.643188,1538.542725 
	C1527.063232,1508.401367 1586.618286,1478.525391 1646.207520,1448.719116 
	C1662.887939,1440.375488 1679.808350,1432.512085 1696.608032,1424.406250 
	C1703.703735,1420.982300 1710.272217,1421.730469 1717.654541,1424.744263 
	C1732.702759,1430.887817 1748.004028,1436.696777 1763.651001,1441.011108 
	C1780.215332,1445.578369 1796.631470,1443.184814 1812.151611,1435.309570 
	C1835.117798,1423.656372 1851.613892,1405.900757 1861.430420,1382.271484 
	C1877.089111,1344.579224 1867.442627,1303.501343 1836.568359,1277.997437 
	C1812.467407,1258.088989 1784.377563,1252.028442 1753.964478,1258.308960 
	C1730.285889,1263.198608 1710.450806,1275.073730 1696.361572,1295.072876 
	C1683.590698,1313.200684 1677.431763,1332.916626 1683.320190,1355.424927 
	C1685.425049,1363.471069 1682.140259,1370.521606 1674.676514,1375.049438 
	C1672.113037,1376.604492 1669.614258,1378.282593 1666.970093,1379.686646 
	C1627.545166,1400.622192 1588.169922,1421.652832 1548.636963,1442.382690 
	C1521.199951,1456.769897 1493.572998,1470.796875 1465.932129,1484.789673 
	C1462.852173,1486.348877 1458.656494,1488.137451 1455.784424,1487.239746 
	C1445.080933,1483.894653 1434.713623,1479.473755 1423.273682,1475.094238 
	C1425.549438,1472.734497 1426.968506,1470.994995 1428.648193,1469.560913 
	C1472.495972,1432.124756 1516.352051,1394.698364 1560.245361,1357.315552 
	C1638.896484,1290.329956 1717.522461,1223.314453 1796.344116,1156.529907 
	C1802.022217,1151.718994 1804.044678,1146.825317 1804.018555,1139.492310 
	C1803.757568,1065.827271 1803.981934,992.160339 1803.674927,918.495544 
	C1803.643433,910.959839 1806.206177,906.531616 1811.832886,901.810242 
	C1824.571167,891.121582 1836.785156,879.746826 1848.583496,868.018433 
	C1858.172119,858.486816 1864.822998,846.792297 1867.943237,833.549377 
	C1875.348022,802.122375 1868.009644,773.801147 1847.348755,749.517517 
	C1823.286377,721.236023 1792.440063,709.165100 1755.413330,715.939636 
	C1731.970459,720.228882 1713.770386,733.309937 1700.356934,752.743347 
	C1682.794922,778.187500 1677.067871,806.291382 1684.170776,836.456909 
	C1688.018555,852.797607 1696.526489,866.597656 1710.674072,876.361755 
	C1723.539551,885.240967 1736.426880,894.088562 1749.358154,902.986877 
	C1749.488647,904.351929 1749.720093,905.673035 1749.726562,906.995178 
	C1750.067383,977.322693 1750.333862,1047.650635 1750.821777,1117.977173 
	C1750.859375,1123.379150 1748.404419,1126.443848 1744.623413,1129.588501 
	C1642.387939,1214.613281 1540.215576,1299.713989 1438.009277,1384.773682 
	C1435.826172,1386.590210 1433.367798,1388.076050 1429.474854,1390.816406 
	C1429.869995,1383.178223 1429.996826,1377.309326 1430.504395,1371.473389 
	C1433.649536,1335.319092 1437.016479,1299.183105 1439.942993,1263.011475 
	C1440.410278,1257.235840 1442.386475,1253.047729 1446.480591,1249.147461 
	C1463.611816,1232.827148 1480.549072,1216.303223 1497.563110,1199.859741 
	C1530.153564,1168.361816 1562.701172,1136.818970 1595.394897,1105.428467 
	C1599.920288,1101.083496 1602.864258,1096.850830 1602.710083,1090.015991 
	C1602.447388,1078.383789 1603.482544,1066.725830 1603.857788,1055.074951 
	C1604.607788,1031.789062 1605.280396,1008.500854 1605.978760,985.414185 
	C1613.073608,980.659912 1619.874023,976.453186 1626.295288,971.730957 
	C1642.327759,959.940613 1656.643555,946.480286 1663.911011,927.359924 
	C1676.322144,894.706604 1670.509644,864.215942 1650.588379,836.529053 
	C1621.138184,795.598694 1568.031738,786.177917 1527.631592,814.168274 
	C1507.433472,828.162231 1492.024048,846.796631 1488.740967,871.268372 
	C1485.085205,898.520386 1492.119141,924.960938 1505.626831,948.990295 
	C1512.570801,961.343262 1523.773193,970.202515 1535.720459,977.762878 
	C1541.599976,981.483459 1547.758545,984.763062 1554.284180,988.526733 
	C1554.284180,991.824890 1554.284058,995.123535 1554.284058,998.422180 
	C1554.284058,1017.421997 1553.929932,1036.431763 1554.457031,1055.416870 
	C1554.670044,1063.090210 1552.144897,1068.367554 1546.787598,1073.695923 
	C1495.502563,1124.702881 1444.513550,1176.007324 1393.263428,1227.049683 
	C1388.444092,1231.849487 1386.162109,1236.768799 1385.992920,1243.608032 
	C1385.556641,1261.253296 1384.508301,1278.887085 1383.498169,1296.513550 
	C1381.116333,1338.077881 1378.374268,1379.623657 1376.368530,1421.205444 
	C1375.978882,1429.281250 1373.514282,1434.538208 1367.063477,1439.502686 
	C1336.166748,1463.281006 1305.794678,1487.740601 1274.907959,1511.532227 
	C1269.443481,1515.741577 1267.888306,1520.143188 1267.887573,1526.636597 
	C1267.864868,1706.632568 1267.687500,1886.628540 1267.484741,2066.624512 
	C1267.474609,2075.610840 1266.944702,2084.595215 1266.771484,2093.583008 
	C1266.657593,2099.488037 1266.749878,2105.396729 1266.749878,2111.645752 
	C1271.930054,2111.645752 1275.901367,2111.923340 1279.823486,2111.601807 
	C1309.352051,2109.179688 1338.769897,2106.244141 1367.861938,2100.069092 
	C1427.194214,2087.476318 1485.662964,2071.812012 1543.282715,2052.918945 
	C1572.201904,2043.436768 1599.274170,2029.791260 1626.309326,2016.062622 
	C1662.842407,1997.511108 1699.892578,1979.875366 1734.085083,1957.080811 
	C1790.919312,1919.192261 1841.779419,1874.116943 1889.370728,1825.405518 
	C1942.934570,1770.580933 1987.891846,1708.972168 2028.222168,1643.940430 
	C2058.712402,1594.775757 2084.161133,1543.231689 2101.152588,1487.733398 
	C2110.312256,1457.815918 2120.130859,1428.095093 2128.917236,1398.070679 
	C2133.394287,1382.772339 2137.107422,1367.139771 2139.681641,1351.415283 
	C2148.676270,1296.474976 2153.548584,1241.096924 2155.241455,1185.459839 
	C2156.367676,1148.449341 2154.178711,1111.570557 2150.510742,1074.728149 
	C2146.876953,1038.234985 2141.209961,1002.076660 2133.337402,966.307190 
	C2110.135742,860.886169 2070.393066,762.246521 2011.480957,671.537720 
	C1976.013184,616.927063 1937.976440,564.228210 1892.051636,517.881775 
	C1870.276489,495.906830 1846.128418,476.296509 1823.300537,455.347748 
	C1803.628906,437.295258 1783.560425,419.880249 1760.668457,405.845062 
	C1749.055542,398.724976 1738.025391,390.558350 1727.239014,382.209503 
	C1712.954468,371.152954 1698.132202,361.091766 1681.790161,353.316376 
	C1669.157349,347.305756 1656.584473,341.167236 1644.031616,334.990753 
	C1601.564819,314.095245 1558.445923,294.707489 1513.825928,278.815247 
	C1473.916504,264.600708 1433.359863,252.982239 1391.181030,247.520493 
	C1365.441528,244.187469 1339.854980,239.652405 1314.100098,236.462112 
	C1286.701904,233.068253 1259.242432,229.460541 1231.704102,228.126694 
	C1208.820923,227.018341 1185.753418,228.528824 1162.822876,229.843628 
	C1120.879883,232.248611 1079.410889,238.744919 1038.212524,246.674332 
	C935.296387,266.482452 838.321838,302.561676 747.228943,354.379974 
	C641.636597,414.446350 551.173218,492.080200 476.578857,588.052185 
	C404.858856,680.325989 352.122467,782.449768 317.599731,894.086304 
	C293.961914,970.524231 280.096619,1048.709595 276.562378,1128.547607 
	C273.178864,1204.981201 277.783234,1281.036377 292.119019,1356.338501 
	C302.989014,1413.435547 319.055695,1468.981812 342.145477,1522.392822 
	C360.155609,1564.053589 382.318970,1603.578613 404.509827,1643.087891 
	C459.612091,1741.194092 529.167908,1827.316406 617.100708,1897.944580 
	C701.854614,1966.019409 793.135437,2022.728760 897.521851,2056.143799 
	C922.881836,2064.261963 947.741699,2074.190674 973.455811,2080.891602 
	C1006.596558,2089.527832 1040.289917,2096.130859 1073.894287,2102.866211 
	C1092.069824,2106.508789 1110.555420,2108.603760 1129.598755,2111.503174 
	C1129.819702,2107.539307 1130.124756,2104.619141 1130.125122,2101.698975 
	C1130.147217,1898.700562 1130.115723,1695.702271 1130.281860,1492.703979 
	C1130.286987,1486.423340 1128.488159,1482.339722 1123.652710,1478.284912 
	C1081.517456,1442.953003 1039.614746,1407.343994 997.634644,1371.827148 
	C966.085999,1345.135254 934.553711,1318.423828 902.935974,1291.813965 
	C898.683411,1288.234985 895.943848,1284.733643 896.004211,1278.484985 
	C896.637939,1212.836914 896.917786,1147.185425 897.284485,1081.534790 
	C897.383118,1063.869995 897.616699,1046.202881 897.416504,1028.541138 
	C897.357239,1023.316956 898.887207,1020.019714 903.405579,1017.086487 
	C915.698669,1009.105957 927.749084,1000.731079 939.627930,992.142212 
	C944.992310,988.263550 950.318542,984.025269 954.637390,979.059021 
	C976.152588,954.318726 981.908997,925.619751 974.420410,894.117310 
	C968.032715,867.245728 952.752930,846.715515 927.421448,835.415527 
	C890.858948,819.105652 855.582642,823.210083 823.732971,847.319153 
	C781.750061,879.098816 776.551270,939.347900 811.966919,978.113647 
	C819.789185,986.675781 829.062744,993.959595 838.004028,1001.429993 
	C841.940552,1004.718994 843.626282,1008.136292 843.623047,1013.335815 
	C843.595154,1058.333008 843.845032,1103.330200 843.966858,1148.327515 
	C843.972473,1150.381714 843.544861,1152.436890 843.161926,1155.921265 
	C840.923462,1153.033447 839.668396,1151.519287 838.525696,1149.924683 
	C814.262634,1116.067383 790.060608,1082.166138 765.698914,1048.380127 
	C762.605164,1044.089722 761.423157,1039.710205 761.439880,1034.473877 
	C761.525940,1007.476379 761.421326,980.477478 761.221497,953.480225 
	C760.955200,917.494995 760.589417,881.510315 760.122681,845.527283 
	C760.067566,841.275574 761.387146,838.822876 765.490173,837.218628 
	C771.680847,834.797974 777.917114,832.234497 783.607605,828.847412 
	C796.166443,821.372192 809.125305,814.311218 817.917847,801.932556 
	C833.680786,779.740356 838.221619,755.166199 833.014648,728.784912 
	C825.849304,692.481567 797.681335,657.202759 748.450073,652.125122 
z"/>
<path fill="#FDFEFC" opacity="1.000000" stroke="none" 
	d="
M1071.576538,672.065063 
	C1091.497437,684.128479 1098.518677,709.271851 1085.196289,729.822083 
	C1075.309937,745.072144 1056.185425,751.630920 1038.801514,745.969421 
	C1021.874023,740.456482 1009.939514,723.878662 1010.492065,706.646057 
	C1011.096252,687.802917 1023.965881,672.152283 1042.020752,667.804199 
	C1052.259888,665.338318 1061.765747,666.852722 1071.576538,672.065063 
z"/>
<path fill="#FEFEFC" opacity="1.000000" stroke="none" 
	d="
M1236.849609,569.094971 
	C1218.125244,582.117676 1195.186890,577.562561 1182.728394,563.850098 
	C1171.537354,551.532593 1168.744995,533.346863 1176.132568,518.382812 
	C1183.859985,502.729767 1200.100342,494.105621 1218.179932,496.054169 
	C1234.047363,497.764313 1248.481934,510.783966 1252.118652,526.945740 
	C1255.923462,543.854248 1250.449585,557.610168 1236.849609,569.094971 
z"/>
<path fill="#FEFEFC" opacity="1.000000" stroke="none" 
	d="
M1524.657227,618.905457 
	C1502.894775,634.622498 1468.041870,625.253784 1461.197388,594.789978 
	C1456.420898,573.531006 1469.569214,551.860657 1490.887817,546.566895 
	C1512.308594,541.247925 1534.414795,553.968872 1539.911743,575.042664 
	C1544.495972,592.617615 1539.096069,607.016479 1524.657227,618.905457 
z"/>
<path fill="#478FCB" opacity="1.000000" stroke="none" 
	d="
M749.360779,652.172913 
	C797.681335,657.202759 825.849304,692.481567 833.014648,728.784912 
	C838.221619,755.166199 833.680786,779.740356 817.917847,801.932556 
	C809.125305,814.311218 796.166443,821.372192 783.607605,828.847412 
	C777.917114,832.234497 771.680847,834.797974 765.490173,837.218628 
	C761.387146,838.822876 760.067566,841.275574 760.122681,845.527283 
	C760.589417,881.510315 760.955200,917.494995 761.221497,953.480225 
	C761.421326,980.477478 761.525940,1007.476379 761.439880,1034.473877 
	C761.423157,1039.710205 762.605164,1044.089722 765.698914,1048.380127 
	C790.060608,1082.166138 814.262634,1116.067383 838.525696,1149.924683 
	C839.668396,1151.519287 840.923462,1153.033447 843.161926,1155.921265 
	C843.544861,1152.436890 843.972473,1150.381714 843.966858,1148.327515 
	C843.845032,1103.330200 843.595154,1058.333008 843.623047,1013.335815 
	C843.626282,1008.136292 841.940552,1004.718994 838.004028,1001.429993 
	C829.062744,993.959595 819.789185,986.675781 811.966919,978.113647 
	C776.551270,939.347900 781.750061,879.098816 823.732971,847.319153 
	C855.582642,823.210083 890.858948,819.105652 927.421448,835.415527 
	C952.752930,846.715515 968.032715,867.245728 974.420410,894.117310 
	C981.908997,925.619751 976.152588,954.318726 954.637390,979.059021 
	C950.318542,984.025269 944.992310,988.263550 939.627930,992.142212 
	C927.749084,1000.731079 915.698669,1009.105957 903.405579,1017.086487 
	C898.887207,1020.019714 897.357239,1023.316956 897.416504,1028.541138 
	C897.616699,1046.202881 897.383118,1063.869995 897.284485,1081.534790 
	C896.917786,1147.185425 896.637939,1212.836914 896.004211,1278.484985 
	C895.943848,1284.733643 898.683411,1288.234985 902.935974,1291.813965 
	C934.553711,1318.423828 966.085999,1345.135254 997.634644,1371.827148 
	C1039.614746,1407.343994 1081.517456,1442.953003 1123.652710,1478.284912 
	C1128.488159,1482.339722 1130.286987,1486.423340 1130.281860,1492.703979 
	C1130.115723,1695.702271 1130.147217,1898.700562 1130.125122,2101.698975 
	C1130.124756,2104.619141 1129.819702,2107.539307 1129.598755,2111.503174 
	C1110.555420,2108.603760 1092.069824,2106.508789 1073.894287,2102.866211 
	C1040.289917,2096.130859 1006.596558,2089.527832 973.455811,2080.891602 
	C947.741699,2074.190674 922.881836,2064.261963 897.521851,2056.143799 
	C793.135437,2022.728760 701.854614,1966.019409 617.100708,1897.944580 
	C529.167908,1827.316406 459.612091,1741.194092 404.509827,1643.087891 
	C382.318970,1603.578613 360.155609,1564.053589 342.145477,1522.392822 
	C319.055695,1468.981812 302.989014,1413.435547 292.119019,1356.338501 
	C277.783234,1281.036377 273.178864,1204.981201 276.562378,1128.547607 
	C280.096619,1048.709595 293.961914,970.524231 317.599731,894.086304 
	C352.122467,782.449768 404.858856,680.325989 476.578857,588.052185 
	C551.173218,492.080200 641.636597,414.446350 747.228943,354.379974 
	C838.321838,302.561676 935.296387,266.482452 1038.212524,246.674332 
	C1079.410889,238.744919 1120.879883,232.248611 1162.822876,229.843628 
	C1185.753418,228.528824 1208.820923,227.018341 1231.704102,228.126694 
	C1259.242432,229.460541 1286.701904,233.068253 1314.100098,236.462112 
	C1339.854980,239.652405 1365.441528,244.187469 1391.181030,247.520493 
	C1433.359863,252.982239 1473.916504,264.600708 1513.825928,278.815247 
	C1558.445923,294.707489 1601.564819,314.095245 1644.031616,334.990753 
	C1656.584473,341.167236 1669.157349,347.305756 1681.790161,353.316376 
	C1698.132202,361.091766 1712.954468,371.152954 1727.239014,382.209503 
	C1738.025391,390.558350 1749.055542,398.724976 1760.668457,405.845062 
	C1783.560425,419.880249 1803.628906,437.295258 1823.300537,455.347748 
	C1846.128418,476.296509 1870.276489,495.906830 1892.051636,517.881775 
	C1937.976440,564.228210 1976.013184,616.927063 2011.480957,671.537720 
	C2070.393066,762.246521 2110.135742,860.886169 2133.337402,966.307190 
	C2141.209961,1002.076660 2146.876953,1038.234985 2150.510742,1074.728149 
	C2154.178711,1111.570557 2156.367676,1148.449341 2155.241455,1185.459839 
	C2153.548584,1241.096924 2148.676270,1296.474976 2139.681641,1351.415283 
	C2137.107422,1367.139771 2133.394287,1382.772339 2128.917236,1398.070679 
	C2120.130859,1428.095093 2110.312256,1457.815918 2101.152588,1487.733398 
	C2084.161133,1543.231689 2058.712402,1594.775757 2028.222168,1643.940430 
	C1987.891846,1708.972168 1942.934570,1770.580933 1889.370728,1825.405518 
	C1841.779419,1874.116943 1790.919312,1919.192261 1734.085083,1957.080811 
	C1699.892578,1979.875366 1662.842407,1997.511108 1626.309326,2016.062622 
	C1599.274170,2029.791260 1572.201904,2043.436768 1543.282715,2052.918945 
	C1485.662964,2071.812012 1427.194214,2087.476318 1367.861938,2100.069092 
	C1338.769897,2106.244141 1309.352051,2109.179688 1279.823486,2111.601807 
	C1275.901367,2111.923340 1271.930054,2111.645752 1266.749878,2111.645752 
	C1266.749878,2105.396729 1266.657593,2099.488037 1266.771484,2093.583008 
	C1266.944702,2084.595215 1267.474609,2075.610840 1267.484741,2066.624512 
	C1267.687500,1886.628540 1267.864868,1706.632568 1267.887573,1526.636597 
	C1267.888306,1520.143188 1269.443481,1515.741577 1274.907959,1511.532227 
	C1305.794678,1487.740601 1336.166748,1463.281006 1367.063477,1439.502686 
	C1373.514282,1434.538208 1375.978882,1429.281250 1376.368530,1421.205444 
	C1378.374268,1379.623657 1381.116333,1338.077881 1383.498169,1296.513550 
	C1384.508301,1278.887085 1385.556641,1261.253296 1385.992920,1243.608032 
	C1386.162109,1236.768799 1388.444092,1231.849487 1393.263428,1227.049683 
	C1444.513550,1176.007324 1495.502563,1124.702881 1546.787598,1073.695923 
	C1552.144897,1068.367554 1554.670044,1063.090210 1554.457031,1055.416870 
	C1553.929932,1036.431763 1554.284058,1017.421997 1554.284058,998.422180 
	C1554.284058,995.123535 1554.284180,991.824890 1554.284180,988.526733 
	C1547.758545,984.763062 1541.599976,981.483459 1535.720459,977.762878 
	C1523.773193,970.202515 1512.570801,961.343262 1505.626831,948.990295 
	C1492.119141,924.960938 1485.085205,898.520386 1488.740967,871.268372 
	C1492.024048,846.796631 1507.433472,828.162231 1527.631592,814.168274 
	C1568.031738,786.177917 1621.138184,795.598694 1650.588379,836.529053 
	C1670.509644,864.215942 1676.322144,894.706604 1663.911011,927.359924 
	C1656.643555,946.480286 1642.327759,959.940613 1626.295288,971.730957 
	C1619.874023,976.453186 1613.073608,980.659912 1605.978760,985.414185 
	C1605.280396,1008.500854 1604.607788,1031.789062 1603.857788,1055.074951 
	C1603.482544,1066.725830 1602.447388,1078.383789 1602.710083,1090.015991 
	C1602.864258,1096.850830 1599.920288,1101.083496 1595.394897,1105.428467 
	C1562.701172,1136.818970 1530.153564,1168.361816 1497.563110,1199.859741 
	C1480.549072,1216.303223 1463.611816,1232.827148 1446.480591,1249.147461 
	C1442.386475,1253.047729 1440.410278,1257.235840 1439.942993,1263.011475 
	C1437.016479,1299.183105 1433.649536,1335.319092 1430.504395,1371.473389 
	C1429.996826,1377.309326 1429.869995,1383.178223 1429.474854,1390.816406 
	C1433.367798,1388.076050 1435.826172,1386.590210 1438.009277,1384.773682 
	C1540.215576,1299.713989 1642.387939,1214.613281 1744.623413,1129.588501 
	C1748.404419,1126.443848 1750.859375,1123.379150 1750.821777,1117.977173 
	C1750.333862,1047.650635 1750.067383,977.322693 1749.726562,906.995178 
	C1749.720093,905.673035 1749.488647,904.351929 1749.358154,902.986877 
	C1736.426880,894.088562 1723.539551,885.240967 1710.674072,876.361755 
	C1696.526489,866.597656 1688.018555,852.797607 1684.170776,836.456909 
	C1677.067871,806.291382 1682.794922,778.187500 1700.356934,752.743347 
	C1713.770386,733.309937 1731.970459,720.228882 1755.413330,715.939636 
	C1792.440063,709.165100 1823.286377,721.236023 1847.348755,749.517517 
	C1868.009644,773.801147 1875.348022,802.122375 1867.943237,833.549377 
	C1864.822998,846.792297 1858.172119,858.486816 1848.583496,868.018433 
	C1836.785156,879.746826 1824.571167,891.121582 1811.832886,901.810242 
	C1806.206177,906.531616 1803.643433,910.959839 1803.674927,918.495544 
	C1803.981934,992.160339 1803.757568,1065.827271 1804.018555,1139.492310 
	C1804.044678,1146.825317 1802.022217,1151.718994 1796.344116,1156.529907 
	C1717.522461,1223.314453 1638.896484,1290.329956 1560.245361,1357.315552 
	C1516.352051,1394.698364 1472.495972,1432.124756 1428.648193,1469.560913 
	C1426.968506,1470.994995 1425.549438,1472.734497 1423.273682,1475.094238 
	C1434.713623,1479.473755 1445.080933,1483.894653 1455.784424,1487.239746 
	C1458.656494,1488.137451 1462.852173,1486.348877 1465.932129,1484.789673 
	C1493.572998,1470.796875 1521.199951,1456.769897 1548.636963,1442.382690 
	C1588.169922,1421.652832 1627.545166,1400.622192 1666.970093,1379.686646 
	C1669.614258,1378.282593 1672.113037,1376.604492 1674.676514,1375.049438 
	C1682.140259,1370.521606 1685.425049,1363.471069 1683.320190,1355.424927 
	C1677.431763,1332.916626 1683.590698,1313.200684 1696.361572,1295.072876 
	C1710.450806,1275.073730 1730.285889,1263.198608 1753.964478,1258.308960 
	C1784.377563,1252.028442 1812.467407,1258.088989 1836.568359,1277.997437 
	C1867.442627,1303.501343 1877.089111,1344.579224 1861.430420,1382.271484 
	C1851.613892,1405.900757 1835.117798,1423.656372 1812.151611,1435.309570 
	C1796.631470,1443.184814 1780.215332,1445.578369 1763.651001,1441.011108 
	C1748.004028,1436.696777 1732.702759,1430.887817 1717.654541,1424.744263 
	C1710.272217,1421.730469 1703.703735,1420.982300 1696.608032,1424.406250 
	C1679.808350,1432.512085 1662.887939,1440.375488 1646.207520,1448.719116 
	C1586.618286,1478.525391 1527.063232,1508.401367 1467.643188,1538.542725 
	C1462.030640,1541.389648 1457.604126,1541.706787 1451.783203,1539.333130 
	C1428.350098,1529.777710 1404.618774,1520.954346 1381.165405,1511.446655 
	C1375.583862,1509.184082 1371.295044,1509.469360 1366.358887,1512.855103 
	C1352.346924,1522.466064 1338.220459,1531.932495 1323.807251,1540.923706 
	C1318.845825,1544.018677 1317.377197,1547.567505 1317.420654,1553.124146 
	C1317.689697,1587.454346 1317.661011,1621.786987 1317.715332,1656.118896 
	C1317.862915,1749.449829 1318.002808,1842.780762 1318.144653,1936.111694 
	C1318.150146,1939.719238 1318.145386,1943.326782 1318.145386,1948.162964 
	C1331.937866,1945.348022 1344.678711,1943.251587 1357.156738,1940.110596 
	C1401.701782,1928.897217 1446.322388,1917.913818 1489.322876,1901.384155 
	C1571.228027,1869.899414 1645.862549,1826.048462 1713.251709,1769.878784 
	C1771.723633,1721.141602 1822.854980,1665.729126 1864.951782,1602.180298 
	C1925.742920,1510.410767 1965.594849,1410.159912 1985.410889,1301.997437 
	C1992.206665,1264.903809 1994.692261,1227.293579 1994.164551,1189.584106 
	C1993.698364,1156.273315 1993.357544,1122.919067 1991.353760,1089.680786 
	C1987.967896,1033.512085 1975.198242,979.139038 1957.007935,925.977600 
	C1920.231201,818.496948 1863.536133,722.904419 1785.682373,640.111328 
	C1669.945801,517.031982 1529.302612,437.842865 1364.101685,402.513763 
	C1332.180542,395.687256 1299.810669,391.744110 1267.189209,389.473053 
	C1229.182373,386.827087 1191.225586,387.121674 1153.362427,390.433258 
	C1080.992798,396.762817 1010.721802,412.799042 942.817993,438.725769 
	C831.236572,481.329254 733.275574,544.876404 650.319946,630.942932 
	C566.057922,718.364929 506.399445,820.507263 470.147736,936.322449 
	C455.092072,984.421509 444.296051,1033.485474 439.786530,1083.726440 
	C437.258057,1111.896484 434.872162,1140.196655 434.830292,1168.441772 
	C434.781036,1201.700195 437.045471,1234.937866 441.429260,1268.043213 
	C449.204132,1326.757202 463.525726,1383.770996 484.254517,1439.137573 
	C519.567017,1533.457153 570.601440,1618.379028 637.883057,1693.454468 
	C703.363159,1766.519409 779.433044,1825.949219 867.768250,1868.719849 
	C896.721375,1882.738525 927.773438,1892.476074 958.031982,1903.723755 
	C974.254089,1909.753784 990.834656,1914.818115 1007.241699,1920.353149 
	C1010.682739,1921.514038 1014.072021,1922.828247 1018.374451,1924.395752 
	C1017.687988,1942.822876 1017.010010,1961.022949 1016.283936,1980.512085 
	C1011.662476,1979.950073 1007.850647,1979.672607 1004.109375,1979.001953 
	C977.057861,1974.152466 951.620667,1964.197388 926.196411,1954.217041 
	C876.547180,1934.726807 827.495667,1914.046021 781.735046,1886.207764 
	C709.654419,1842.357910 646.535645,1788.043701 590.942505,1724.748779 
	C539.185242,1665.821045 495.746338,1601.382324 461.569824,1530.733398 
	C427.414093,1460.127563 403.671783,1386.170288 390.541077,1308.878784 
	C381.699829,1256.836426 378.492310,1204.317017 380.369141,1151.584717 
	C382.946320,1079.174927 391.367340,1007.529602 411.417633,937.642273 
	C439.220978,840.730957 485.199036,752.899048 545.449768,672.427368 
	C605.957947,591.611755 678.546143,523.485535 763.230469,468.441620 
	C855.656738,408.365509 956.253723,368.199921 1064.273682,346.777588 
	C1082.811890,343.101105 1101.855591,340.975037 1120.745361,340.273712 
	C1162.025879,338.741150 1203.361450,337.811493 1244.667603,338.019318 
	C1344.161377,338.519867 1439.592651,359.196106 1531.262939,397.695953 
	C1612.421143,431.780975 1685.978394,478.193329 1753.432251,534.490662 
	C1785.698120,561.419983 1816.628540,589.783508 1844.881958,620.980652 
	C1887.456787,667.991211 1921.636475,720.641174 1950.598999,776.902222 
	C1981.014648,835.985962 2007.304321,896.681763 2024.454712,961.064575 
	C2034.840942,1000.054260 2042.149902,1039.590820 2046.357910,1079.742065 
	C2049.904297,1113.577148 2051.994873,1147.486450 2051.194824,1181.469727 
	C2047.089111,1355.875000 1995.206787,1514.653076 1894.113525,1656.988159 
	C1835.193359,1739.945068 1763.195923,1809.564697 1677.903442,1865.201904 
	C1618.689453,1903.827759 1554.861816,1932.896729 1488.126343,1955.849487 
	C1440.841675,1972.112427 1392.546875,1984.691284 1343.867310,1995.927979 
	C1335.464966,1997.867554 1327.225830,2000.513672 1317.832275,2003.134399 
	C1317.232422,2019.675171 1316.634644,2036.155396 1315.991211,2053.896729 
	C1327.403076,2051.089600 1337.671753,2048.734131 1347.848022,2046.031494 
	C1392.868286,2034.074951 1438.506836,2024.000854 1482.741943,2009.617554 
	C1603.808838,1970.251709 1711.886230,1907.862671 1805.973511,1821.653931 
	C1881.943726,1752.045166 1943.018921,1671.073975 1991.972412,1580.617554 
	C2037.106445,1497.218750 2066.037842,1408.223633 2083.174316,1315.340576 
	C2088.230225,1287.937866 2090.152100,1259.868896 2092.092529,1232.006592 
	C2093.709961,1208.775757 2094.094971,1185.381592 2093.573730,1162.092285 
	C2090.957275,1045.136963 2070.591553,931.752502 2024.255493,823.699585 
	C1989.050659,741.604065 1942.353638,666.700745 1884.240723,598.888123 
	C1801.207031,501.994934 1701.336426,427.283356 1585.927612,373.286407 
	C1510.113647,337.815033 1430.847656,313.234253 1348.190308,299.579224 
	C1296.767944,291.084167 1245.054810,287.035156 1192.974487,288.368469 
	C1157.654663,289.272705 1122.543457,293.046082 1087.618286,298.279236 
	C1038.502075,305.638794 990.095398,316.125092 942.714355,331.270477 
	C883.966492,350.049255 829.429565,377.698975 776.322876,408.596832 
	C701.816956,451.944855 634.387085,504.293640 574.592529,566.380371 
	C533.944824,608.586243 500.085938,656.000183 469.107208,705.559143 
	C428.331879,770.790466 393.851532,839.073486 371.649109,912.943542 
	C364.873047,935.488342 361.256256,958.982849 356.198669,982.043823 
	C351.853485,1001.856262 347.995453,1021.791870 343.014679,1041.443115 
	C339.475098,1055.408081 336.736877,1069.444702 336.388824,1083.762695 
	C335.417206,1123.733887 335.068024,1163.719727 334.242859,1203.695068 
	C333.697174,1230.129395 336.443573,1256.150757 341.631805,1282.078613 
	C347.310181,1310.455933 351.538086,1339.121582 357.097717,1367.524780 
	C372.927063,1448.394287 403.589661,1523.683838 443.826721,1595.282715 
	C488.390350,1674.580566 542.704773,1746.456421 609.692139,1808.123779 
	C675.434021,1868.644531 746.996887,1921.300293 827.702942,1960.500000 
	C882.607910,1987.168091 939.429138,2009.296631 997.857056,2026.871582 
	C1020.396423,2033.651367 1043.972534,2036.988403 1067.087646,2041.839722 
	C1068.356201,2042.106079 1069.729492,2041.874023 1072.376831,2041.874023 
	C1072.491333,2037.958374 1072.700928,2034.109985 1072.702026,2030.261597 
	C1072.721924,1960.262207 1072.716553,1890.262695 1072.716553,1820.263306 
	C1072.716431,1716.264160 1072.631592,1612.264771 1072.886597,1508.266235 
	C1072.905762,1500.444336 1070.497192,1495.616455 1064.260132,1490.886108 
	C1020.982239,1458.062622 977.947876,1424.915771 935.042786,1391.605591 
	C929.575684,1387.361206 924.356628,1386.142090 917.589294,1386.751465 
	C902.006775,1388.154419 886.347473,1388.754395 870.710449,1389.491089 
	C835.436340,1391.153076 800.081543,1391.799927 764.916992,1394.741333 
	C751.044922,1395.901733 742.267456,1391.453247 732.695923,1382.444214 
	C690.716553,1342.932007 647.997437,1304.206421 605.651367,1265.082153 
	C600.953552,1260.741821 596.389038,1258.875610 589.615906,1259.625854 
	C575.421936,1261.198364 561.083374,1261.611816 546.790405,1262.091064 
	C537.629150,1262.398315 529.014832,1259.884277 521.026794,1255.289062 
	C514.962463,1251.800415 508.865906,1248.363770 502.719299,1245.022461 
	C479.084991,1232.173950 465.294952,1213.070190 462.716278,1185.683838 
	C459.895386,1155.724731 466.074219,1128.668457 485.621338,1105.399902 
	C516.372498,1068.794312 569.334106,1066.011108 605.593323,1093.343018 
	C637.925598,1117.714722 651.497559,1150.238281 644.860474,1190.662109 
	C643.189148,1200.841431 641.975891,1211.096558 640.264465,1221.268555 
	C639.351807,1226.692993 640.776245,1230.574219 644.950806,1234.420044 
	C679.265381,1266.031494 713.370544,1297.870117 747.545837,1329.632935 
	C749.742065,1331.673950 752.323608,1333.394653 754.158936,1335.713135 
	C760.969055,1344.316284 769.566650,1346.580444 780.397461,1345.888306 
	C810.310974,1343.976685 840.287231,1343.049805 870.236389,1341.682983 
	C872.083984,1341.598633 873.911560,1341.077759 877.542603,1340.449585 
	C874.046936,1337.565186 871.928162,1335.680420 869.667053,1333.985352 
	C866.735229,1331.787109 863.634094,1329.814697 860.705383,1327.612549 
	C854.614197,1323.032471 846.263123,1319.532227 843.188293,1313.406128 
	C840.099731,1307.252686 842.158691,1298.446777 842.200073,1290.804565 
	C842.293823,1273.474609 842.276855,1256.137085 842.835327,1238.819824 
	C843.074097,1231.419678 841.077026,1225.505981 836.540283,1219.612061 
	C797.513550,1168.910645 758.814087,1117.957153 719.770386,1067.269043 
	C714.826904,1060.851196 712.707642,1054.766479 713.181091,1046.384155 
	C714.232239,1027.774048 713.664124,1009.070923 713.707764,990.405579 
	C713.818481,943.073730 713.731140,895.740295 714.184692,848.411865 
	C714.251831,841.408508 711.904907,837.446899 706.134094,834.132690 
	C698.342285,829.657654 690.976685,824.445618 683.371582,819.639404 
	C661.934631,806.092163 649.795105,786.741516 647.600525,761.482788 
	C644.293152,723.415161 656.941345,691.986633 688.024048,669.082275 
	C705.850464,655.946228 726.353516,650.817322 749.360779,652.172913 
M1785.724243,770.389832 
	C1783.731079,770.263611 1781.738647,770.041138 1779.744629,770.025879 
	C1754.479126,769.832397 1736.228271,789.226929 1738.037231,814.315125 
	C1739.609131,836.115234 1760.837280,853.689941 1782.410889,851.051880 
	C1805.798462,848.191895 1822.061890,827.854065 1818.737793,805.571106 
	C1815.974487,787.047546 1805.128296,775.778320 1785.724243,770.389832 
M587.766968,1173.700562 
	C587.297974,1166.462769 588.148010,1158.828003 586.111145,1152.062256 
	C580.144104,1132.241943 559.770935,1121.112061 539.620789,1125.558716 
	C518.177063,1130.290894 505.596649,1148.195801 507.876343,1170.738647 
	C509.837982,1190.136353 527.466675,1205.619141 547.662109,1205.859497 
	C562.914490,1206.041016 581.584106,1196.620483 587.766968,1173.700562 
M1754.059692,1381.251221 
	C1757.364014,1382.775879 1760.549561,1384.676636 1763.992310,1385.762329 
	C1782.193115,1391.501587 1801.588623,1383.867676 1811.187988,1367.393921 
	C1820.557007,1351.315674 1817.330566,1329.754150 1803.665527,1317.121582 
	C1789.727295,1304.236450 1768.973511,1302.815796 1753.075684,1313.406738 
	C1729.916260,1328.835083 1729.509399,1364.826538 1754.059692,1381.251221 
M917.766174,897.719055 
	C916.130615,895.213684 914.716919,892.525208 912.823914,890.232361 
	C899.603149,874.218811 875.337402,870.795105 858.669678,882.488525 
	C840.579468,895.179688 835.484985,918.793640 846.825989,937.385742 
	C857.878540,955.504944 881.200378,961.860718 900.240967,952.195374 
	C919.120728,942.611755 927.707703,918.590149 917.766174,897.719055 
M698.453613,738.237122 
	C698.311951,740.229858 698.052124,742.222168 698.046265,744.215332 
	C697.964172,772.264954 724.033325,791.834351 750.780579,783.827515 
	C771.226868,777.706848 783.251404,755.991821 777.949524,734.763367 
	C772.719177,713.820801 751.352966,700.617432 730.341614,705.366577 
	C713.331238,709.211243 703.268066,720.078674 698.453613,738.237122 
M1567.344238,852.038696 
	C1564.813477,852.854553 1562.192505,853.463135 1559.766479,854.519409 
	C1542.989136,861.824097 1533.172974,880.410034 1536.261475,898.831848 
	C1539.183350,916.259705 1554.223633,930.377075 1571.594849,931.997070 
	C1590.794800,933.787598 1607.978882,923.383118 1614.305786,905.939636 
	C1624.970459,876.536865 1601.122192,846.271973 1567.344238,852.038696 
z"/>
<path fill="#FCFDFE" opacity="1.000000" stroke="none" 
	d="
M1786.537842,770.584961 
	C1805.128296,775.778320 1815.974487,787.047546 1818.737793,805.571106 
	C1822.061890,827.854065 1805.798462,848.191895 1782.410889,851.051880 
	C1760.837280,853.689941 1739.609131,836.115234 1738.037231,814.315125 
	C1736.228271,789.226929 1754.479126,769.832397 1779.744629,770.025879 
	C1781.738647,770.041138 1783.731079,770.263611 1786.537842,770.584961 
z"/>
<path fill="#FCFDFE" opacity="1.000000" stroke="none" 
	d="
M587.573059,1174.522461 
	C581.584106,1196.620483 562.914490,1206.041016 547.662109,1205.859497 
	C527.466675,1205.619141 509.837982,1190.136353 507.876343,1170.738647 
	C505.596649,1148.195801 518.177063,1130.290894 539.620789,1125.558716 
	C559.770935,1121.112061 580.144104,1132.241943 586.111145,1152.062256 
	C588.148010,1158.828003 587.297974,1166.462769 587.573059,1174.522461 
z"/>
<path fill="#FCFDFE" opacity="1.000000" stroke="none" 
	d="
M1753.454590,1380.825806 
	C1729.509399,1364.826538 1729.916260,1328.835083 1753.075684,1313.406738 
	C1768.973511,1302.815796 1789.727295,1304.236450 1803.665527,1317.121582 
	C1817.330566,1329.754150 1820.557007,1351.315674 1811.187988,1367.393921 
	C1801.588623,1383.867676 1782.193115,1391.501587 1763.992310,1385.762329 
	C1760.549561,1384.676636 1757.364014,1382.775879 1753.454590,1380.825806 
z"/>
<path fill="#FCFDFE" opacity="1.000000" stroke="none" 
	d="
M918.075439,898.423584 
	C927.707703,918.590149 919.120728,942.611755 900.240967,952.195374 
	C881.200378,961.860718 857.878540,955.504944 846.825989,937.385742 
	C835.484985,918.793640 840.579468,895.179688 858.669678,882.488525 
	C875.337402,870.795105 899.603149,874.218811 912.823914,890.232361 
	C914.716919,892.525208 916.130615,895.213684 918.075439,898.423584 
z"/>
<path fill="#FCFDFE" opacity="1.000000" stroke="none" 
	d="
M698.649536,737.428467 
	C703.268066,720.078674 713.331238,709.211243 730.341614,705.366577 
	C751.352966,700.617432 772.719177,713.820801 777.949524,734.763367 
	C783.251404,755.991821 771.226868,777.706848 750.780579,783.827515 
	C724.033325,791.834351 697.964172,772.264954 698.046265,744.215332 
	C698.052124,742.222168 698.311951,740.229858 698.649536,737.428467 
z"/>
<path fill="#FDFEFE" opacity="1.000000" stroke="none" 
	d="
M1568.131836,851.934692 
	C1601.122192,846.271973 1624.970459,876.536865 1614.305786,905.939636 
	C1607.978882,923.383118 1590.794800,933.787598 1571.594849,931.997070 
	C1554.223633,930.377075 1539.183350,916.259705 1536.261475,898.831848 
	C1533.172974,880.410034 1542.989136,861.824097 1559.766479,854.519409 
	C1562.192505,853.463135 1564.813477,852.854553 1568.131836,851.934692 
z"/>
</svg>