<svg id="Layer_1" data-name="Layer 1" xmlns="http://www.w3.org/2000/svg" viewBox="0 0 1736.07 560"><defs><style>.cls-1{fill:#9dc73b;}.cls-2{fill:#fff;}.cls-3{fill:#458eca;}</style></defs><title>Logo_Full</title><path class="cls-1" d="M46,307.81a258,258,0,0,1-1.72-35.36,239.13,239.13,0,0,1,20.53-93.32C107.32,84.62,214.23,23.47,317.25,34.72s194.22,94,215.36,195.48S503.2,444,413.25,495.42c-38.09,21.79-82.23,32-126,31.15-44-.84-87.93-12.73-125.83-35.21A234.23,234.23,0,0,1,73.64,398,261,261,0,0,1,46,307.81Z"/><path class="cls-2" d="M258.93,251,297,216.48l.32-66.33s10.26-6.68,12.32-11.93a23.78,23.78,0,0,0,1.27-8.78c0-3.17.29-6.45-1-9.44-2.09-5-6.84-8.5-11.65-10.63a23.72,23.72,0,0,0-8.9-1.7,20.88,20.88,0,0,0-9.88,2.3c-9.62,4.93-15,18.44-10.14,28.52,2.38,4.91,7.14,8,11.91,10.26a47.49,47.49,0,0,1,4.51,2.36l0,57-26.18,24.34.24-40.8a91.67,91.67,0,0,0,8.36-8.45,23.82,23.82,0,0,0,5-12.15,21.67,21.67,0,0,0-1.58-12.24c-2.06-4.22-6.81-7.44-10.87-9.55-10.16-5.28-24-.38-29,9.7-4.13,8.33-2.11,19.86,5,26.32,3.61,3.25,10.09,6.13,10.09,6.13l-.08,104.67c6.21,8.2,31.76,32.49,31.76,32.49l.24,186.84s-14.39-.61-20.16-1.92c-6.82-1.55-13.1-2.57-19.85-4.3-3.05-.79-21.63-5.5-24.09-6.5-3.17-1.28-6.4-2.76-9.63-3.87a203.09,203.09,0,0,1-33.56-15.5c-2.15-1.22-3.82-3.12-5.93-4.45-2.47-1.57-5-3-7.4-4.69-10.43-7.21-21.64-15.52-30.53-24.58-1.68-1.71-3.88-3-5.45-4.69-.76-.84-1.13-1.89-1.91-2.73a27,27,0,0,1-3.13-3.54c-1.23-1.85-3.08-2.82-4.42-4.58-1.64-2.14-3.22-4.16-5-6.2a85.71,85.71,0,0,1-5.26-7c-1.84-2.6-4.22-4.77-6-7.41-1.64-2.42-2.87-5.1-4.44-7.56-1.37-2.15-2.94-3.95-4-6.31-2.5-5.85-6.41-10.86-8.87-16.72-1.08-2.58-2.66-4.84-3.88-7.34-1.35-2.78-2.08-5.81-3.26-8.66a190.47,190.47,0,0,1-7.06-20c-3.92-13.55-6.36-27.78-8.67-41.69-1.08-6.5-.72-13.15-.88-19.71q-.26-11,.19-22.05c.27-6.82,1.81-13.45,2.83-20.18,1-6.24,1.16-12.65,3-18.73s3.18-12.44,5.62-18.29c1.21-2.88,1.61-5.85,2.65-8.76,1.22-3.41,3.34-6.41,4.56-9.82,4.66-13,12.06-24.74,19.38-36.42,3.35-5.34,6.38-11.23,10.8-15.77s8.32-9.77,12.87-14.31c4.3-4.29,8.43-8.73,12.7-13a46.83,46.83,0,0,1,6.58-5.52c2.54-1.79,4.33-4,6.61-6.06,4.16-3.71,8.74-6.4,13.27-9.62,5.73-4.07,11.53-7.81,17.59-11.36,5.69-3.33,11.62-6.17,17.47-9.19A72.89,72.89,0,0,1,199.93,63c3-1.09,5.51-3,8.48-4.08A149.46,149.46,0,0,1,226,53.55c6.36-1.47,12.6-3.54,19-4.71,6.58-1.19,13.26-1.87,19.87-2.85a132.07,132.07,0,0,1,21.85-1.58c6.85.13,13.72.12,20.57.35a51.91,51.91,0,0,1,9.35,1.42c3.53.76,7.06.94,10.64,1.37,3,.37,5.89,1.24,8.88,1.65,2.81.38,5.66.36,8.42,1,3.06.73,5.88,2.22,8.85,3.21s6.93.4,9.41,2.13c1,.68,1.43,1.61,2.53,2.17a12.49,12.49,0,0,0,3.61.89,25.53,25.53,0,0,1,7.48,2.24c6.18,3,12.66,5.38,18.87,8.39a195.34,195.34,0,0,1,34.54,21.14c5.13,4,10.27,8,15.25,12.17,2.52,2.1,4.82,4.45,7.34,6.54s4.14,4.48,6.3,7c1.8,2.06,4,3.69,5.86,5.76,1.41,1.61,2.39,3.56,3.81,5.13.85,1,2,1.53,2.87,2.43a27.22,27.22,0,0,1,2.07,2.82c2.15,2.8,4.84,5.1,6.91,8,1.51,2.12,2.08,4.49,3.8,6.45a10,10,0,0,1,2.24,2.93,25.17,25.17,0,0,0,1.26,3.28c3.31,5.49,7.59,10.18,10.29,16.09,2.46,5.41,5.56,10.41,7.66,16,1.13,3,2.81,5.68,3.85,8.67,1.16,3.36,2.41,6.38,3.87,9.61a38,38,0,0,1,2.33,8.79c.55,2.89,1.85,5.44,2.77,8.22,1,3,1.15,6.11,1.67,9.19.63,3.73,1.64,7.38,2.48,11.06,1.5,6.61,1.5,13.09,1.77,19.82.31,7.36,2.38,14.34,2,21.75-.35,6.88-1.09,13.75-1.55,20.63-.24,3.5-.48,7-1,10.5s-1.73,7-2.47,10.6c-1.21,5.8-1.57,12-3.49,17.62-1,3-1.9,5.91-2.67,9-.92,3.69-2.58,7-4,10.52-1.12,2.78-1.66,5.75-2.86,8.49a69.52,69.52,0,0,0-3,6.73c-.83,2.56-2.16,4.37-3.37,6.74-1.81,3.54-3.59,7.1-5.41,10.65-1.24,2.44-2.88,4.46-4.27,6.79s-2.5,4.82-4.07,7.16c-3.6,5.32-7.3,10.53-10.93,15.84-1.33,2-3.2,3.24-4.56,5.15a60.68,60.68,0,0,1-5.59,6.52c-2.28,2.39-4.33,5-6.58,7.43s-5.12,4.79-7.45,7.43a29.39,29.39,0,0,1-5.45,5.24c-1.9,1.29-9.8,7.83-12.09,9.55-2.9,2.18-5.63,4.59-8.48,6.83a65.74,65.74,0,0,1-7.65,5.32c-2.56,1.48-18.77,11.38-20.25,11.95-5.26,2-21.5,10.56-24.49,11.62-3.33,1.18-18,5.92-26.16,8.64-6.48,2.16-29.76,5-38.16,6-4.4.5-17,1-17,1l-1-197.76,29.48-36.9,0-84.43,27.85-36.11s5.58,1.11,8.11,1.41c5.62.69,11.06-.19,15.57-3.88,4.16-3.4,6.9-9.49,8-14.57,1.31-6.07-.87-11.88-4.24-17-1.34-2-3.8-3.68-5.84-5.06a16,16,0,0,0-6.49-2.73c-6-1.17-13.07-.5-18.19,3.19a21.79,21.79,0,0,0-8.7,13.32,19.76,19.76,0,0,0,.09,8.14c.6,2.58,2.06,7.76,2.06,7.76l-30.25,39.07,0,83.72-30.65,36.41-19.2-19.2Z"/><path class="cls-3" d="M249.63,72.68a201.37,201.37,0,0,0-28.35,7.47C206,85.45,191.35,93.49,177.66,102a219.72,219.72,0,0,0-38.52,30.86c-11.51,11.5-21.14,25.1-29.59,39a211.85,211.85,0,0,0-21.48,46.47c-2.49,8-3.36,16.06-5,24.2-.8,4-2.32,7.76-2.93,11.77-.67,4.41-.49,9-.55,13.49-.1,8.66-.52,17.36-.37,26s2.62,16.24,3.81,24.55a171.13,171.13,0,0,0,13.79,46.86c13.77,30.35,34.44,58,60.62,78.67,13.32,10.52,27,20.07,42.49,27.17,7.83,3.59,15.8,7,23.93,9.87,7.23,2.54,13.95,5.34,21.86,6.72,2.64.46,10.81,2.1,10.81,2.1V358.83l-34.8-26.76-43.44,2.16-35.76-32.88S130,303.76,125,301.11c-10.32-5.52-14.47-7.92-15.1-19.45-.64-11.82,7.29-23.16,19.6-24.16,14.26-1.15,26.58,12.32,24.39,26.32-.54,3.47-1.53,10.57-1.53,10.57l30.24,28.08,27.6-1.2-9.12-6.48.24-20.64-31.2-40.8.24-52.56s-6.12-3.88-8.43-5.46a17,17,0,0,1-5.89-7c-2.49-5.39-2.29-11.77-.33-17.28a22.47,22.47,0,0,1,28.6-14c13.85,4.74,19.68,23,10.75,34.88-2.24,3-2.62,2.49-5.5,4.71-2.54,2-8.16,4.08-8.16,4.08l.24,48.72,19.92,27.84-.22-36.6s-5.17-4.17-7.45-6.59a20.87,20.87,0,0,1-4.8-8.41,21.73,21.73,0,0,1,2.21-17c6.5-11,21.83-14.39,32.56-7.61,12.2,7.71,13,27.24,1.29,35.81-2.59,1.9-10.87,7.5-10.87,7.5l-.24,63.6,56.16,47.52V506.07s-12.39-1.65-16.68-2.61c-3.4-.77-17.93-3.92-21.78-4.85-4-1-18.49-6.27-21.94-7.39a141.89,141.89,0,0,1-22-9.5c-29.07-15.3-55.72-36.45-75.42-62.9-10-13.47-18.36-28.26-26.09-43.15-15.8-30.42-21.74-65.53-21.1-99.54,1.15-60.4,27.17-119.62,71.3-160.95A227.05,227.05,0,0,1,218.2,66.52a245.46,245.46,0,0,1,49.54-11A177.79,177.79,0,0,1,294.23,54c8.68.23,17.15,1.74,25.73,3,8.92,1.29,17.72,2.15,26.48,4.41a201.37,201.37,0,0,1,24.88,8.36c8,3.26,15.92,6.92,23.69,10.78,3.56,1.77,7.2,3.42,10.7,5.28,3.85,2,7.06,4.87,10.52,7.48,2.94,2.21,6.13,4,9.18,6.08a78.66,78.66,0,0,1,9.37,7.73c6,5.45,12.38,10.45,18,16.26,11.68,12,21.8,25.94,30.72,40.11,18.5,29.38,28.94,63.27,31.93,97.81,1.51,17.43.58,34.53-1.51,51.86-1,8.61-2.25,17.23-5.26,25.41-2.86,7.77-4.6,15.82-7.39,23.61-5.8,16.2-14.66,31.19-24.49,45.24-9.54,13.63-19.93,26.34-32.16,37.65-11.91,11-24.36,21.69-38.65,29.45-7.68,4.17-15.5,8.08-23.33,12-8.53,4.22-14.47,6-22.15,8.33-8.13,2.49-16.31,4.66-24.59,6.61-3.95.93-14.64,3.23-18.67,3.68s-14.16,1.2-14.16,1.2l.24-142.8,25.82-20.31,2.68-47.73,40.26-40.32V236.43s-11.76-4.65-14-14.4c-1.27-5.45-3.19-10.86-1.19-16,4.47-11.62,17.06-18.37,28.94-13.3,12.73,5.42,18.63,22.75,9.68,34-4.29,5.4-11.15,9-11.15,9l-.79,27.23-38.81,37.57-2.88,33.12,77.4-64.44-.36-53.28s-10-6-12.19-8.78c-4.8-6-5.25-14.06-2.72-21.08,4.4-12.22,16.52-18.47,28.86-13.67,12.57,4.89,19.72,21.06,11.74,32.82-3.62,5.34-12.73,12.15-12.73,12.15v58l-91.63,78.06,8.83,3.3S399,331.26,401.61,329c3.05-2.69.26-6.25.88-10,2.23-13.44,16.31-20.8,29-17.2a21.5,21.5,0,0,1,14.6,28.29,24.8,24.8,0,0,1-13.29,14.24c-6.85,2.94-12.21.55-18.78-1.63-3.09-1-3.84-2.88-7-1.85-3.63,1.19-57.66,28.67-57.66,28.67l-20.82-8.15-13.44,8.88.24,96.72s8.84-1.64,11.75-2.44c7.94-2.2,15.94-4.05,23.75-6.74a192,192,0,0,0,80.83-54.41c22-24.82,36.92-56.19,43.31-88.65,3.41-17.31,2.92-35.29,2-52.83-.87-16.62-5.35-33.29-11.4-48.76C442.24,153.42,389.25,108.94,326.48,96c-63-13-129.91,10.25-173.49,56.91a186.27,186.27,0,0,0-44.33,171C122,377.59,158.2,424,208,448.42c7.62,3.74,35.34,12.77,35.34,12.77l-.48,13.68a97.68,97.68,0,0,1-12.71-3.17c-7.75-2.81-15.44-5.92-23-9.16-30.61-13.07-56.8-35.6-76.74-62.08a199.76,199.76,0,0,1-38.29-91.19c-2.51-17.42-2.33-34.91-.48-52.38a182.46,182.46,0,0,1,11.18-47.56c19.76-50.52,59.63-92.33,109.6-113.65a203,203,0,0,1,44.72-13.55c8.49-1.47,17.19-1.21,25.77-1.51a249.67,249.67,0,0,1,26.94.41c32.12,2.39,62.75,13.78,89.56,31.48a240.92,240.92,0,0,1,36.29,29.61,163.75,163.75,0,0,1,29.14,39.46c7.74,14.4,14.59,29.61,19.12,45.33a191.17,191.17,0,0,1,7.25,49.75c1,63.62-28.55,125-79.46,163.29-25.65,19.3-55.59,30.6-88.66,38-2.89.65-8,2.21-8,2.21l-.24,12.24s9.1-2.33,11.52-2.88c3.92-.9,6.93-2.18,10.88-3,16.37-3.38,32.49-9.63,47.43-17.06a209.15,209.15,0,0,0,71.74-58.87,226.59,226.59,0,0,0,25.19-40.82c7.51-15.63,12.5-31.81,16.21-48.72s4.19-34.39,3.28-51.66a220.67,220.67,0,0,0-8.29-50,207.52,207.52,0,0,0-46.15-81.47,213.64,213.64,0,0,0-75.42-52.69c-31.09-12.92-66.17-19.29-99.76-15.73C264.19,70.26,256.88,71.3,249.63,72.68Z"/><circle class="cls-2" cx="176.24" cy="178.17" r="9.72"/><circle class="cls-2" cx="130.48" cy="279.01" r="9.72"/><circle class="cls-2" cx="210.52" cy="219.25" r="9.72"/><circle class="cls-2" cx="251.28" cy="169.13" r="9.72"/><circle class="cls-2" cx="290" cy="128.09" r="9.72"/><circle class="cls-2" cx="359.16" cy="140.01" r="9.72"/><circle class="cls-2" cx="377.28" cy="213.37" r="9.72"/><circle class="cls-2" cx="425.8" cy="193.89" r="9.72"/><circle class="cls-2" cx="425.2" cy="322.65" r="9.72"/><path class="cls-1" d="M648.54,59.38V234.61H625.92V59.38Z"/><path class="cls-1" d="M689.88,142.84c0-13-.26-23.66-1-34.06h20.28l1.3,20.8h.52c6.24-12,20.8-23.66,41.6-23.66,17.42,0,44.46,10.4,44.46,53.56v75.13H774.12V162.08c0-20.28-7.54-37.18-29.12-37.18-15.08,0-26.78,10.66-30.68,23.4A32.9,32.9,0,0,0,712.76,159v75.65H689.88Z"/><path class="cls-1" d="M846.92,175.86c.52,30.93,20.28,43.67,43.16,43.67,16.38,0,26.26-2.86,34.84-6.5l3.89,16.38c-8,3.64-21.83,7.8-41.85,7.8-38.74,0-61.88-25.48-61.88-63.44s22.36-67.85,59-67.85c41.08,0,52,36.14,52,59.28a84,84,0,0,1-.79,10.66ZM914,159.48c.26-14.56-6-37.18-31.72-37.18-23.14,0-33.28,21.32-35.1,37.18Z"/><path class="cls-1" d="M973.27,108.78,998,179.5a322.65,322.65,0,0,1,10.14,32.23h.78c2.86-10.4,6.5-20.8,10.66-32.23L1044,108.78h23.92l-49.4,125.83H996.67L948.84,108.78Z"/><path class="cls-1" d="M1115,73.42c.26,7.8-5.46,14-14.56,14-8.06,0-13.78-6.24-13.78-14a13.94,13.94,0,0,1,14.3-14.3C1109.51,59.12,1115,65.36,1115,73.42Zm-25.48,161.19V108.78h22.88V234.61Z"/><path class="cls-1" d="M1177.89,72.64v36.14h32.76V126.2h-32.76v67.85c0,15.6,4.42,24.44,17.16,24.44a50.9,50.9,0,0,0,13.26-1.56l1,17.16c-4.42,1.82-11.44,3.12-20.28,3.12-10.66,0-19.24-3.38-24.7-9.62-6.5-6.76-8.84-17.94-8.84-32.76V126.2H1136V108.78h19.5V78.62Z"/><path class="cls-1" d="M1306.07,234.61l-1.82-15.86h-.78c-7,9.88-20.54,18.72-38.48,18.72-25.48,0-38.48-17.94-38.48-36.14,0-30.41,27-47.05,75.66-46.79v-2.6c0-10.4-2.86-29.12-28.6-29.12a62.7,62.7,0,0,0-32.76,9.36l-5.2-15.08c10.4-6.76,25.48-11.18,41.34-11.18,38.48,0,47.84,26.26,47.84,51.48v47c0,10.92.52,21.58,2.08,30.16Zm-3.38-64.21c-25-.52-53.3,3.89-53.3,28.33,0,14.82,9.88,21.84,21.58,21.84,16.38,0,26.78-10.4,30.42-21.06a23.88,23.88,0,0,0,1.3-7.28Z"/><path class="cls-1" d="M1360.67,234.61c.52-8.58,1-21.32,1-32.5V50h22.62v79h.52c8.06-14,22.62-23.14,42.9-23.14,31.2,0,53.3,26,53,64.22,0,45-28.33,67.33-56.41,67.33-18.2,0-32.76-7-42.12-23.66h-.78l-1,20.8Zm23.66-50.44a42.84,42.84,0,0,0,1,8.32c4.42,15.86,17.68,26.78,34.32,26.78,23.92,0,38.22-19.5,38.22-48.35,0-25.22-13-46.8-37.44-46.8-15.6,0-30.16,10.66-34.84,28.08a45.09,45.09,0,0,0-1.3,9.36Z"/><path class="cls-1" d="M1509.64,50h22.88V234.61h-22.88Z"/><path class="cls-1" d="M1583.74,175.86c.52,30.93,20.28,43.67,43.16,43.67,16.38,0,26.26-2.86,34.84-6.5l3.9,16.38c-8.06,3.64-21.84,7.8-41.86,7.8-38.74,0-61.88-25.48-61.88-63.44s22.36-67.85,59-67.85c41.08,0,52,36.14,52,59.28a86.3,86.3,0,0,1-.78,10.66Zm67.08-16.38c.26-14.56-6-37.18-31.72-37.18-23.14,0-33.28,21.32-35.1,37.18Z"/><path class="cls-3" d="M648.54,309.38V484.61H625.92V309.38Z"/><path class="cls-3" d="M689.88,392.84c0-13-.26-23.66-1-34.06h20.28l1.3,20.8h.52c6.24-12,20.8-23.66,41.6-23.66,17.42,0,44.46,10.4,44.46,53.55v75.14H774.12V412.08c0-20.29-7.54-37.18-29.12-37.18-15.08,0-26.78,10.66-30.68,23.39A33,33,0,0,0,712.76,409v75.65H689.88Z"/><path class="cls-3" d="M836.52,484.61V376.2H818.84V358.78h17.68v-6c0-17.68,3.9-33.8,14.56-43.94,8.58-8.32,20-11.7,30.68-11.7a53.06,53.06,0,0,1,19.5,3.64l-3.12,17.68a34.17,34.17,0,0,0-14.56-2.86c-19.5,0-24.44,17.16-24.44,36.4v6.76h30.42V376.2H859.14V484.61Z"/><path class="cls-3" d="M1020.6,420.65c0,46.54-32.24,66.82-62.66,66.82-34.06,0-60.32-25-60.32-64.74,0-42.11,27.56-66.81,62.4-66.81C996.16,355.92,1020.6,382.18,1020.6,420.65ZM920.76,422c0,27.55,15.86,48.35,38.22,48.35,21.84,0,38.22-20.54,38.22-48.88,0-21.31-10.66-48.35-37.7-48.35S920.76,398,920.76,422Z"/><path class="cls-3" d="M1077,322.64v36.14h32.76V376.2H1077v67.85c0,15.6,4.42,24.44,17.16,24.44a50.9,50.9,0,0,0,13.26-1.56l1,17.16c-4.42,1.82-11.44,3.12-20.28,3.12-10.66,0-19.24-3.38-24.7-9.62-6.5-6.76-8.84-17.94-8.84-32.76V376.2h-19.5V358.78h19.5V328.62Z"/><path class="cls-3" d="M1146.7,425.85c.52,30.94,20.28,43.68,43.16,43.68,16.38,0,26.26-2.86,34.84-6.5l3.9,16.38c-8.06,3.64-21.84,7.8-41.86,7.8-38.74,0-61.88-25.48-61.88-63.44s22.36-67.85,59-67.85c41.08,0,52,36.14,52,59.27a86.13,86.13,0,0,1-.78,10.66Zm67.08-16.38c.26-14.55-6-37.17-31.72-37.17-23.14,0-33.28,21.32-35.1,37.17Z"/><path class="cls-3" d="M1353.91,479.93c-6,3.12-19.24,7.28-36.14,7.28-38,0-62.65-25.74-62.65-64.22,0-38.73,26.52-66.81,67.59-66.81,13.52,0,25.48,3.38,31.72,6.5l-5.2,17.68c-5.46-3.12-14-6-26.52-6-28.86,0-44.45,21.32-44.45,47.58,0,29.11,18.71,47.05,43.67,47.05a65,65,0,0,0,28.08-6.24Z"/><path class="cls-3" d="M1380.69,300h22.88v78.52h.52a42.46,42.46,0,0,1,16.38-16.12,47.09,47.09,0,0,1,23.4-6.5c16.9,0,43.94,10.4,43.94,53.82v74.87h-22.88V412.34c0-20.28-7.54-37.44-29.12-37.44-14.82,0-26.52,10.39-30.68,22.88-1.3,3.12-1.56,6.5-1.56,10.92v75.91h-22.88Z"/></svg>